<svg xmlns="http://www.w3.org/2000/svg" xmlns:xlink="http://www.w3.org/1999/xlink" width="57" zoomAndPan="magnify" viewBox="0 0 42.75 42.75" height="57" preserveAspectRatio="xMidYMid meet" version="1.2"><defs><clipPath id="5f95477e73"><path d="M 11.066406 8 L 31.941406 8 L 31.941406 36 L 11.066406 36 Z M 11.066406 8 "/></clipPath><clipPath id="acfc0261c9"><path d="M 16 4.25 L 27 4.25 L 27 10 L 16 10 Z M 16 4.25 "/></clipPath><clipPath id="a8f795ceff"><path d="M 18 16.039062 L 31 16.039062 L 31 32 L 18 32 Z M 18 16.039062 "/></clipPath><clipPath id="d01a5bf31e"><path d="M 18 16.039062 L 31 16.039062 L 31 25 L 18 25 Z M 18 16.039062 "/></clipPath><clipPath id="247438379f"><path d="M 18 16.039062 L 30 16.039062 L 30 25 L 18 25 Z M 18 16.039062 "/></clipPath><clipPath id="9889aef93a"><path d="M 18 16.039062 L 20 16.039062 L 20 19 L 18 19 Z M 18 16.039062 "/></clipPath><clipPath id="08d06df854"><path d="M 17 16.039062 L 20 16.039062 L 20 19 L 17 19 Z M 17 16.039062 "/></clipPath><clipPath id="0f2b199294"><path d="M 18 16.039062 L 20 16.039062 L 20 18 L 18 18 Z M 18 16.039062 "/></clipPath><clipPath id="afa95bb3af"><path d="M 15.164062 18 L 34 18 L 34 22 L 15.164062 22 Z M 15.164062 18 "/></clipPath><clipPath id="332c455b3f"><path d="M 15.164062 19 L 16 19 L 16 20 L 15.164062 20 Z M 15.164062 19 "/></clipPath><clipPath id="cc54964bdf"><path d="M 15.164062 18 L 18 18 L 18 20 L 15.164062 20 Z M 15.164062 18 "/></clipPath><clipPath id="bfee31dec9"><path d="M 15.164062 19 L 16 19 L 16 20 L 15.164062 20 Z M 15.164062 19 "/></clipPath><clipPath id="df405119aa"><path d="M 18.554688 19.796875 L 37.527344 19.796875 L 37.527344 38.40625 L 18.554688 38.40625 Z M 18.554688 19.796875 "/></clipPath><clipPath id="3005199572"><path d="M 18.554688 19.820312 L 37.195312 19.820312 L 37.195312 38.40625 L 18.554688 38.40625 Z M 18.554688 19.820312 "/></clipPath><clipPath id="f2230bb070"><path d="M 23.417969 27.597656 L 32.171875 27.597656 L 32.171875 38.40625 L 23.417969 38.40625 Z M 23.417969 27.597656 "/></clipPath></defs><g id="a764290e18"><g clip-rule="nonzero" clip-path="url(#5f95477e73)"><path style=" stroke:none;fill-rule:evenodd;fill:#603f8b;fill-opacity:1;" d="M 29.332031 35.695312 L 13.675781 35.695312 C 12.246094 35.695312 11.066406 34.515625 11.066406 33.085938 L 11.066406 10.964844 C 11.066406 9.535156 12.246094 8.355469 13.675781 8.355469 L 29.332031 8.355469 C 30.761719 8.355469 31.941406 9.535156 31.941406 10.964844 L 31.941406 33.085938 C 31.941406 34.515625 30.761719 35.695312 29.332031 35.695312 Z M 29.332031 35.695312 "/></g><path style=" stroke:none;fill-rule:evenodd;fill:#ffffff;fill-opacity:1;" d="M 29.332031 34.453125 C 30.078125 34.453125 30.699219 33.832031 30.699219 33.085938 L 30.699219 10.964844 C 30.699219 10.21875 30.078125 9.597656 29.332031 9.597656 L 13.675781 9.597656 C 12.929688 9.597656 12.308594 10.21875 12.308594 10.964844 L 12.308594 33.085938 C 12.308594 33.832031 12.929688 34.453125 13.675781 34.453125 Z M 29.332031 34.453125 "/><g clip-rule="nonzero" clip-path="url(#acfc0261c9)"><path style=" stroke:none;fill-rule:evenodd;fill:#aa9faf;fill-opacity:1;" d="M 26.039062 9.597656 L 16.96875 9.597656 C 16.71875 9.597656 16.53125 9.410156 16.53125 9.164062 L 16.53125 7.671875 C 16.53125 6.554688 17.277344 5.683594 18.273438 5.683594 L 20.011719 5.683594 L 20.011719 5.433594 C 20.011719 4.75 20.445312 4.253906 21.007812 4.253906 L 22 4.253906 C 22.621094 4.253906 23.058594 4.8125 23.058594 5.433594 L 23.058594 5.683594 L 24.796875 5.683594 C 25.789062 5.683594 26.472656 6.554688 26.472656 7.671875 L 26.472656 9.164062 C 26.472656 9.410156 26.289062 9.597656 26.039062 9.597656 Z M 26.039062 9.597656 "/></g><path style=" stroke:none;fill-rule:evenodd;fill:#ccf2e6;fill-opacity:1;" d="M 16.78125 15.375 L 14.605469 15.375 C 14.046875 15.375 13.550781 14.878906 13.550781 14.320312 L 13.550781 12.082031 C 13.550781 11.523438 14.046875 11.089844 14.605469 11.089844 L 16.78125 11.089844 C 17.402344 11.089844 17.835938 11.523438 17.835938 12.082031 L 17.835938 14.320312 C 17.835938 14.878906 17.339844 15.375 16.78125 15.375 Z M 16.78125 15.375 "/><path style=" stroke:none;fill-rule:evenodd;fill:#aa9faf;fill-opacity:1;" d="M 27.46875 13.636719 L 20.386719 13.636719 C 20.136719 13.636719 19.949219 13.449219 19.949219 13.203125 C 19.949219 12.953125 20.136719 12.765625 20.386719 12.765625 L 27.46875 12.765625 C 27.71875 12.765625 27.902344 12.953125 27.902344 13.203125 C 27.902344 13.449219 27.71875 13.636719 27.46875 13.636719 Z M 27.46875 13.636719 "/><path style=" stroke:none;fill-rule:evenodd;fill:#ccf2e6;fill-opacity:1;" d="M 16.78125 21.21875 L 14.605469 21.21875 C 14.046875 21.21875 13.550781 20.78125 13.550781 20.222656 L 13.550781 17.984375 C 13.550781 17.425781 14.046875 16.929688 14.605469 16.929688 L 16.78125 16.929688 C 17.339844 16.929688 17.835938 17.425781 17.835938 17.984375 L 17.835938 20.222656 C 17.835938 20.78125 17.402344 21.21875 16.78125 21.21875 Z M 16.78125 21.21875 "/><path style=" stroke:none;fill-rule:evenodd;fill:#aa9faf;fill-opacity:1;" d="M 27.46875 19.539062 L 20.386719 19.539062 C 20.136719 19.539062 19.949219 19.351562 19.949219 19.105469 C 19.949219 18.855469 20.136719 18.667969 20.386719 18.667969 L 27.46875 18.667969 C 27.71875 18.667969 27.902344 18.855469 27.902344 19.105469 C 27.902344 19.351562 27.71875 19.539062 27.46875 19.539062 Z M 27.46875 19.539062 "/><path style=" stroke:none;fill-rule:evenodd;fill:#ccf2e6;fill-opacity:1;" d="M 16.78125 27.121094 L 14.605469 27.121094 C 14.046875 27.121094 13.550781 26.625 13.550781 26.0625 L 13.550781 23.890625 C 13.550781 23.328125 14.046875 22.832031 14.605469 22.832031 L 16.78125 22.832031 C 17.402344 22.832031 17.835938 23.269531 17.835938 23.890625 L 17.835938 26.0625 C 17.835938 26.683594 17.402344 27.121094 16.78125 27.121094 Z M 16.78125 27.121094 "/><path style=" stroke:none;fill-rule:evenodd;fill:#aa9faf;fill-opacity:1;" d="M 27.46875 25.441406 L 20.386719 25.441406 C 20.136719 25.441406 19.949219 25.257812 19.949219 25.007812 C 19.949219 24.757812 20.136719 24.574219 20.386719 24.574219 L 27.46875 24.574219 C 27.71875 24.574219 27.902344 24.757812 27.902344 25.007812 C 27.902344 25.257812 27.71875 25.441406 27.46875 25.441406 Z M 27.46875 25.441406 "/><path style=" stroke:none;fill-rule:evenodd;fill:#ccf2e6;fill-opacity:1;" d="M 16.78125 33.023438 L 14.605469 33.023438 C 14.046875 33.023438 13.550781 32.527344 13.550781 31.96875 L 13.550781 29.730469 C 13.550781 29.171875 14.046875 28.734375 14.605469 28.734375 L 16.78125 28.734375 C 17.402344 28.734375 17.835938 29.171875 17.835938 29.730469 L 17.835938 31.96875 C 17.835938 32.527344 17.339844 33.023438 16.78125 33.023438 Z M 16.78125 33.023438 "/><path style=" stroke:none;fill-rule:evenodd;fill:#aa9faf;fill-opacity:1;" d="M 27.46875 31.285156 L 20.386719 31.285156 C 20.136719 31.285156 19.949219 31.097656 19.949219 30.847656 C 19.949219 30.601562 20.136719 30.414062 20.386719 30.414062 L 27.46875 30.414062 C 27.71875 30.414062 27.902344 30.601562 27.902344 30.847656 C 27.902344 31.097656 27.71875 31.285156 27.46875 31.285156 Z M 27.46875 31.285156 "/><path style=" stroke:none;fill-rule:nonzero;fill:#d87a55;fill-opacity:1;" d="M 27.007812 23.804688 C 25.75 22.933594 23.816406 22.027344 22.507812 21.753906 C 21.195312 21.484375 20.421875 22.410156 19.914062 23.070312 C 19.402344 23.726562 18.890625 25.210938 19.464844 25.824219 C 20.132812 26.542969 21.476562 25.292969 21.289062 24.355469 C 21.847656 24.375 22.222656 24.300781 22.710938 23.84375 C 23.207031 24.722656 24.175781 25.515625 25.179688 25.703125 C 25.792969 25.746094 28.300781 24.59375 27.007812 23.804688 "/><path style=" stroke:none;fill-rule:nonzero;fill:#d87a55;fill-opacity:1;" d="M 26.585938 25.277344 C 25.453125 24.726562 23.816406 24.21875 22.800781 24.132812 C 21.785156 24.050781 21.46875 24.832031 21.269531 25.382812 C 21.074219 25.933594 21.09375 27.113281 21.667969 27.527344 C 22.335938 28.011719 23.070312 26.707031 22.691406 26.007812 C 23.109375 26.136719 23.625 26.078125 23.824219 25.851562 C 24.007812 26.460938 24.738281 26.976562 25.511719 27.027344 C 25.96875 27 27.726562 25.757812 26.585938 25.277344 "/><path style=" stroke:none;fill-rule:nonzero;fill:#d87a55;fill-opacity:1;" d="M 25.417969 24.410156 C 24.011719 24.1875 22.820312 21.851562 22.820312 21.851562 C 22.082031 22.402344 20.507812 21.78125 20.25 21.71875 C 18.667969 23.496094 17.203125 22.890625 16.910156 22.085938 C 16.683594 21.460938 17.601562 20.683594 18.378906 20.160156 C 18.902344 19.808594 19.359375 19.570312 19.359375 19.570312 C 19.359375 19.570312 20.257812 19.246094 21.226562 19.042969 C 22.050781 18.875 22.925781 18.796875 23.347656 19.082031 C 23.429688 19.136719 23.539062 19.207031 23.664062 19.289062 C 24.410156 19.773438 25.847656 20.648438 26.917969 21.296875 C 27.6875 21.765625 28.273438 22.117188 28.273438 22.117188 C 29.496094 22.871094 26.589844 24.617188 25.417969 24.410156 "/><g clip-rule="nonzero" clip-path="url(#a8f795ceff)"><path style=" stroke:none;fill-rule:nonzero;fill:#f9a073;fill-opacity:1;" d="M 30.082031 21.445312 C 30.109375 21.527344 30.113281 21.613281 30.089844 21.703125 C 30.089844 21.710938 30.089844 21.714844 30.085938 21.71875 C 30.074219 21.765625 30.058594 21.808594 30.035156 21.855469 C 30.003906 21.917969 29.960938 21.984375 29.910156 22.054688 L 29.902344 22.058594 C 29.890625 22.078125 29.875 22.09375 29.863281 22.109375 C 29.859375 22.117188 29.855469 22.121094 29.851562 22.125 C 29.695312 22.308594 29.472656 22.5 29.222656 22.679688 C 28.5625 23.160156 27.6875 23.589844 27.175781 23.773438 C 27.148438 23.78125 27.113281 23.789062 27.070312 23.792969 C 27.234375 23.957031 27.414062 24.164062 27.59375 24.402344 C 28.566406 25.679688 29.660156 27.878906 29.5 29.078125 C 29.4375 29.558594 29.207031 30.445312 28.742188 31.097656 C 28.261719 31.765625 27.53125 32.183594 26.472656 31.660156 C 25.878906 31.367188 25.425781 31.003906 25.023438 30.515625 C 25.015625 30.503906 25.003906 30.492188 24.996094 30.480469 C 24.992188 30.480469 24.992188 30.476562 24.988281 30.472656 C 24.980469 30.464844 24.972656 30.453125 24.964844 30.445312 C 24.957031 30.429688 24.945312 30.417969 24.933594 30.402344 C 24.921875 30.390625 24.910156 30.375 24.902344 30.363281 C 24.882812 30.335938 24.863281 30.3125 24.84375 30.285156 C 24.839844 30.28125 24.835938 30.273438 24.828125 30.265625 C 24.820312 30.253906 24.8125 30.242188 24.804688 30.230469 C 24.773438 30.1875 24.742188 30.144531 24.710938 30.097656 C 24.695312 30.074219 24.679688 30.050781 24.664062 30.027344 C 24.660156 30.027344 24.660156 30.023438 24.660156 30.023438 C 24.644531 30 24.625 29.972656 24.609375 29.945312 C 24.601562 29.933594 24.59375 29.917969 24.582031 29.90625 C 24.574219 29.890625 24.566406 29.878906 24.558594 29.863281 C 24.539062 29.835938 24.523438 29.808594 24.503906 29.78125 C 24.484375 29.75 24.46875 29.722656 24.453125 29.695312 C 24.441406 29.675781 24.429688 29.65625 24.417969 29.640625 C 24.40625 29.621094 24.394531 29.601562 24.382812 29.582031 C 24.371094 29.558594 24.359375 29.539062 24.347656 29.519531 C 24.339844 29.503906 24.332031 29.492188 24.324219 29.476562 C 24.320312 29.472656 24.320312 29.464844 24.316406 29.460938 C 24.300781 29.433594 24.28125 29.40625 24.265625 29.375 C 24.253906 29.347656 24.238281 29.324219 24.222656 29.296875 C 24.203125 29.257812 24.183594 29.222656 24.160156 29.183594 C 23.84375 28.59375 23.609375 28.066406 23.421875 27.601562 C 23.214844 27.085938 23.066406 26.640625 22.933594 26.265625 C 22.574219 25.261719 22.507812 24.371094 20.695312 23.105469 C 19.132812 22.617188 18.085938 21.453125 18.574219 20.4375 C 18.59375 20.394531 18.617188 20.351562 18.644531 20.3125 C 18.652344 20.300781 18.65625 20.292969 18.664062 20.28125 C 18.671875 20.273438 18.675781 20.265625 18.679688 20.257812 C 18.683594 20.253906 18.6875 20.25 18.691406 20.25 C 18.691406 20.246094 18.691406 20.246094 18.691406 20.246094 C 18.695312 20.242188 18.695312 20.242188 18.695312 20.242188 C 18.699219 20.234375 18.703125 20.230469 18.710938 20.222656 C 18.714844 20.21875 18.71875 20.214844 18.722656 20.207031 C 18.730469 20.199219 18.742188 20.1875 18.75 20.179688 C 18.753906 20.171875 18.761719 20.164062 18.769531 20.15625 C 18.773438 20.152344 18.78125 20.144531 18.789062 20.136719 C 18.789062 20.136719 18.789062 20.136719 18.792969 20.136719 C 18.796875 20.128906 18.800781 20.125 18.804688 20.121094 C 18.808594 20.117188 18.8125 20.113281 18.816406 20.109375 C 18.824219 20.105469 18.828125 20.101562 18.832031 20.097656 C 18.839844 20.089844 18.847656 20.085938 18.855469 20.078125 C 18.871094 20.066406 18.886719 20.054688 18.902344 20.042969 C 18.90625 20.039062 18.914062 20.035156 18.917969 20.03125 C 18.921875 20.027344 18.925781 20.027344 18.929688 20.023438 C 18.933594 20.019531 18.941406 20.015625 18.945312 20.011719 C 18.949219 20.011719 18.953125 20.007812 18.957031 20.007812 C 18.960938 20.003906 18.964844 20 18.96875 19.996094 C 18.976562 19.992188 18.984375 19.988281 18.992188 19.984375 C 18.992188 19.984375 18.992188 19.984375 18.996094 19.980469 C 19.003906 19.976562 19.011719 19.972656 19.019531 19.96875 C 19.023438 19.964844 19.023438 19.964844 19.027344 19.964844 C 19.035156 19.957031 19.046875 19.953125 19.054688 19.949219 C 19.453125 19.746094 20.027344 19.738281 20.695312 19.964844 C 20.714844 19.96875 20.734375 19.976562 20.753906 19.984375 C 20.792969 19.996094 20.832031 20.011719 20.871094 20.027344 C 20.949219 20.054688 21.027344 20.089844 21.109375 20.125 C 21.148438 20.144531 21.1875 20.164062 21.230469 20.183594 C 21.269531 20.203125 21.3125 20.222656 21.351562 20.246094 C 21.566406 20.355469 21.789062 20.488281 22.015625 20.644531 C 22.179688 20.757812 22.347656 20.886719 22.519531 21.023438 C 22.53125 21.035156 22.542969 21.046875 22.554688 21.054688 C 24.195312 22.398438 25.648438 23.949219 26.320312 23.449219 C 26.851562 23.050781 25.578125 22.542969 24.796875 21.015625 C 24.5625 20.558594 24.371094 20.015625 24.285156 19.351562 C 24.28125 19.3125 24.273438 19.269531 24.269531 19.230469 C 24.175781 19.269531 24.070312 19.300781 23.960938 19.320312 C 23.5625 19.386719 23.082031 19.316406 22.652344 19.1875 C 22.160156 19.042969 21.738281 18.828125 21.585938 18.675781 C 21.324219 18.8125 21.058594 18.921875 20.800781 19 C 19.832031 19.300781 18.941406 19.191406 18.445312 18.765625 C 18.234375 18.582031 18.097656 18.34375 18.054688 18.050781 C 18.050781 18.042969 18.050781 18.03125 18.050781 18.023438 C 18.046875 18.015625 18.046875 18.007812 18.046875 18 C 18.046875 17.992188 18.046875 17.984375 18.046875 17.976562 C 18.046875 17.96875 18.046875 17.964844 18.046875 17.957031 C 18.046875 17.949219 18.046875 17.945312 18.046875 17.941406 C 18.046875 17.941406 18.046875 17.9375 18.046875 17.9375 C 18.046875 17.933594 18.046875 17.925781 18.046875 17.921875 C 18.046875 17.917969 18.050781 17.917969 18.050781 17.914062 C 18.050781 17.910156 18.050781 17.902344 18.050781 17.898438 C 18.054688 17.894531 18.054688 17.886719 18.054688 17.882812 C 18.058594 17.875 18.058594 17.867188 18.0625 17.859375 C 18.066406 17.855469 18.066406 17.847656 18.070312 17.84375 C 18.074219 17.832031 18.078125 17.816406 18.085938 17.804688 C 18.085938 17.800781 18.089844 17.792969 18.09375 17.785156 C 18.097656 17.78125 18.101562 17.773438 18.105469 17.769531 C 18.109375 17.761719 18.113281 17.757812 18.117188 17.75 C 18.121094 17.742188 18.125 17.738281 18.128906 17.730469 C 18.132812 17.722656 18.136719 17.71875 18.140625 17.710938 C 18.144531 17.707031 18.148438 17.703125 18.152344 17.695312 C 18.152344 17.695312 18.15625 17.695312 18.15625 17.695312 C 18.160156 17.6875 18.164062 17.683594 18.171875 17.675781 C 18.171875 17.675781 18.171875 17.671875 18.171875 17.671875 C 18.179688 17.664062 18.1875 17.65625 18.195312 17.648438 C 18.214844 17.625 18.234375 17.605469 18.257812 17.585938 C 18.261719 17.582031 18.265625 17.578125 18.265625 17.574219 C 18.277344 17.566406 18.285156 17.558594 18.292969 17.550781 C 18.300781 17.546875 18.304688 17.542969 18.308594 17.539062 C 18.316406 17.53125 18.324219 17.527344 18.332031 17.519531 C 18.335938 17.515625 18.34375 17.511719 18.351562 17.503906 C 18.367188 17.492188 18.386719 17.476562 18.40625 17.464844 C 18.410156 17.460938 18.414062 17.457031 18.417969 17.457031 C 18.421875 17.453125 18.425781 17.449219 18.433594 17.445312 C 18.4375 17.4375 18.445312 17.433594 18.453125 17.429688 C 18.453125 17.429688 18.457031 17.429688 18.457031 17.425781 C 18.460938 17.421875 18.46875 17.417969 18.476562 17.414062 C 18.496094 17.398438 18.519531 17.382812 18.542969 17.371094 C 18.546875 17.367188 18.554688 17.363281 18.558594 17.359375 C 18.59375 17.339844 18.628906 17.316406 18.667969 17.296875 C 18.675781 17.292969 18.683594 17.285156 18.691406 17.28125 C 18.695312 17.28125 18.699219 17.277344 18.703125 17.277344 C 18.710938 17.273438 18.71875 17.269531 18.722656 17.265625 C 18.726562 17.261719 18.726562 17.261719 18.730469 17.261719 C 18.738281 17.253906 18.75 17.25 18.761719 17.242188 C 18.773438 17.238281 18.785156 17.230469 18.800781 17.222656 C 18.808594 17.21875 18.816406 17.214844 18.824219 17.210938 C 19.179688 17.03125 19.605469 16.867188 20.003906 16.730469 C 20.03125 16.722656 20.058594 16.710938 20.085938 16.703125 C 20.761719 16.480469 21.34375 16.339844 21.34375 16.339844 C 21.34375 16.339844 25.003906 16.039062 25.761719 16.898438 C 26.191406 17.390625 27.488281 18.726562 28.519531 19.777344 C 29.292969 20.570312 29.921875 21.203125 29.921875 21.203125 C 29.921875 21.203125 29.921875 21.203125 29.921875 21.207031 C 29.964844 21.25 30 21.292969 30.027344 21.335938 C 30.027344 21.339844 30.03125 21.34375 30.035156 21.347656 C 30.039062 21.355469 30.042969 21.363281 30.046875 21.371094 C 30.058594 21.394531 30.070312 21.421875 30.082031 21.445312 "/></g><g clip-rule="nonzero" clip-path="url(#d01a5bf31e)"><path style=" stroke:none;fill-rule:nonzero;fill:#ffc7ab;fill-opacity:1;" d="M 30.082031 21.445312 C 30.117188 21.539062 30.148438 21.632812 30.171875 21.730469 C 30.175781 21.757812 30.183594 21.785156 30.1875 21.8125 C 30.257812 22.179688 30.230469 22.554688 30.128906 22.910156 C 29.972656 23.472656 29.625 23.976562 29.175781 24.277344 C 28.722656 24.578125 28.167969 24.667969 27.59375 24.402344 C 27.539062 24.375 27.484375 24.347656 27.429688 24.3125 C 27.175781 24.164062 26.40625 24.019531 26.785156 23.71875 C 26.878906 23.644531 26.957031 23.574219 27.015625 23.511719 C 27.570312 22.878906 26.402344 22.675781 25.425781 21.554688 C 25.296875 21.40625 25.167969 21.238281 25.046875 21.050781 C 24.765625 20.609375 24.53125 20.0625 24.398438 19.363281 C 24.363281 19.167969 24.332031 18.960938 24.316406 18.738281 C 23.148438 19.152344 21.882812 18.539062 21.558594 18.21875 C 20.042969 19.019531 18.53125 18.871094 18.066406 18.050781 C 18.058594 18.039062 18.054688 18.03125 18.050781 18.023438 C 18.046875 18.015625 18.046875 18.007812 18.046875 18 C 18.046875 17.992188 18.046875 17.984375 18.046875 17.976562 C 18.046875 17.96875 18.046875 17.964844 18.046875 17.957031 C 18.046875 17.949219 18.046875 17.945312 18.046875 17.941406 C 18.046875 17.941406 18.046875 17.9375 18.046875 17.9375 C 18.046875 17.933594 18.046875 17.925781 18.046875 17.921875 C 18.046875 17.917969 18.050781 17.917969 18.050781 17.914062 C 18.050781 17.910156 18.050781 17.902344 18.050781 17.898438 C 18.054688 17.894531 18.054688 17.886719 18.054688 17.882812 C 18.058594 17.875 18.058594 17.867188 18.0625 17.859375 C 18.066406 17.855469 18.066406 17.847656 18.070312 17.84375 C 18.074219 17.832031 18.078125 17.816406 18.085938 17.804688 C 18.085938 17.800781 18.089844 17.792969 18.09375 17.785156 C 18.097656 17.78125 18.101562 17.773438 18.105469 17.769531 C 18.109375 17.761719 18.113281 17.757812 18.117188 17.75 C 18.121094 17.742188 18.125 17.738281 18.128906 17.730469 C 18.132812 17.722656 18.136719 17.71875 18.140625 17.710938 C 18.144531 17.707031 18.148438 17.703125 18.152344 17.695312 C 18.152344 17.695312 18.15625 17.695312 18.15625 17.695312 C 18.160156 17.6875 18.164062 17.683594 18.171875 17.675781 C 18.171875 17.675781 18.171875 17.671875 18.171875 17.671875 C 18.179688 17.664062 18.1875 17.65625 18.195312 17.648438 C 18.214844 17.625 18.234375 17.605469 18.257812 17.585938 C 18.261719 17.582031 18.265625 17.578125 18.265625 17.574219 C 18.277344 17.566406 18.285156 17.558594 18.292969 17.550781 C 18.300781 17.546875 18.304688 17.542969 18.308594 17.539062 C 18.316406 17.53125 18.324219 17.527344 18.332031 17.519531 C 18.335938 17.515625 18.34375 17.511719 18.351562 17.503906 C 18.367188 17.492188 18.386719 17.476562 18.40625 17.464844 C 18.410156 17.460938 18.414062 17.457031 18.417969 17.457031 C 18.421875 17.453125 18.425781 17.449219 18.433594 17.445312 C 18.4375 17.4375 18.445312 17.433594 18.453125 17.429688 C 18.453125 17.429688 18.457031 17.429688 18.457031 17.425781 C 18.460938 17.421875 18.46875 17.417969 18.476562 17.414062 C 18.496094 17.398438 18.519531 17.382812 18.542969 17.371094 C 18.546875 17.367188 18.554688 17.363281 18.558594 17.359375 C 18.59375 17.339844 18.628906 17.316406 18.667969 17.296875 C 18.675781 17.292969 18.683594 17.285156 18.691406 17.28125 C 18.695312 17.28125 18.699219 17.277344 18.703125 17.277344 C 18.710938 17.273438 18.71875 17.269531 18.722656 17.265625 C 18.726562 17.261719 18.726562 17.261719 18.730469 17.261719 C 18.738281 17.253906 18.75 17.25 18.761719 17.242188 C 18.773438 17.238281 18.785156 17.230469 18.800781 17.222656 C 18.808594 17.21875 18.816406 17.214844 18.824219 17.210938 C 19.179688 17.03125 19.605469 16.867188 20.003906 16.730469 C 20.03125 16.722656 20.058594 16.710938 20.085938 16.703125 C 20.761719 16.480469 21.34375 16.339844 21.34375 16.339844 C 21.34375 16.339844 25.003906 16.039062 25.761719 16.898438 C 26.191406 17.390625 27.488281 18.726562 28.519531 19.777344 C 29.292969 20.570312 29.921875 21.203125 29.921875 21.203125 C 29.921875 21.203125 29.921875 21.203125 29.921875 21.207031 C 29.9375 21.222656 29.972656 21.265625 30.027344 21.335938 C 30.027344 21.339844 30.03125 21.34375 30.035156 21.347656 C 30.039062 21.355469 30.042969 21.363281 30.046875 21.371094 C 30.058594 21.394531 30.070312 21.421875 30.082031 21.445312 "/></g><g clip-rule="nonzero" clip-path="url(#247438379f)"><path style=" stroke:none;fill-rule:nonzero;fill:#f9b995;fill-opacity:1;" d="M 29.714844 21.671875 C 29.726562 21.691406 29.734375 21.710938 29.742188 21.730469 C 30.085938 22.605469 29.785156 23.648438 29.175781 24.277344 C 28.679688 24.605469 28.058594 24.683594 27.429688 24.3125 C 27.175781 24.164062 26.40625 24.019531 26.785156 23.71875 C 27.941406 22.8125 26.148438 22.773438 25.046875 21.050781 C 24.765625 20.609375 24.53125 20.0625 24.398438 19.363281 C 24.363281 19.167969 24.332031 18.960938 24.3125 18.738281 C 23.148438 19.152344 21.882812 18.539062 21.558594 18.21875 C 20.042969 19.019531 18.53125 18.871094 18.066406 18.050781 C 18.058594 18.039062 18.054688 18.03125 18.050781 18.023438 C 18.046875 18.015625 18.046875 18.007812 18.046875 18 C 18.046875 17.992188 18.046875 17.984375 18.046875 17.976562 C 18.042969 17.875 18.089844 17.773438 18.171875 17.675781 C 18.558594 17.421875 19.136719 17.195312 19.664062 17.015625 C 19.691406 17.003906 19.71875 16.996094 19.746094 16.988281 C 20.421875 16.765625 21.003906 16.625 21.003906 16.625 C 21.003906 16.625 24.664062 16.324219 25.421875 17.183594 C 25.804688 17.621094 26.875 18.730469 27.832031 19.710938 C 28.757812 20.65625 29.578125 21.488281 29.578125 21.488281 C 29.582031 21.488281 29.582031 21.488281 29.582031 21.488281 C 29.597656 21.503906 29.632812 21.550781 29.6875 21.621094 C 29.6875 21.625 29.691406 21.628906 29.695312 21.632812 C 29.703125 21.644531 29.707031 21.660156 29.714844 21.671875 "/></g><g clip-rule="nonzero" clip-path="url(#9889aef93a)"><path style=" stroke:none;fill-rule:nonzero;fill:#f9a073;fill-opacity:1;" d="M 19.738281 16.820312 C 19.757812 16.882812 19.773438 16.945312 19.785156 17.007812 L 19.789062 17.046875 L 19.765625 17.074219 C 19.601562 17.261719 19.171875 17.558594 18.921875 17.710938 C 18.859375 17.75 18.796875 17.785156 18.734375 17.816406 C 18.492188 17.949219 18.265625 18.027344 18.066406 18.054688 C 18.0625 18.054688 18.058594 18.058594 18.054688 18.058594 C 18.054688 18.046875 18.050781 18.039062 18.050781 18.027344 C 18.046875 18.019531 18.046875 18.011719 18.046875 18.007812 C 18.042969 18 18.042969 17.992188 18.042969 17.984375 C 18 17.519531 18.925781 17.097656 19.738281 16.820312 "/></g><g clip-rule="nonzero" clip-path="url(#08d06df854)"><path style=" stroke:none;fill-rule:nonzero;fill:#ffe2d7;fill-opacity:1;" d="M 19.644531 16.847656 C 19.648438 16.851562 19.648438 16.859375 19.648438 16.863281 C 19.667969 16.925781 19.679688 16.984375 19.691406 17.042969 C 19.53125 17.222656 19.109375 17.515625 18.859375 17.667969 C 18.53125 17.871094 18.234375 17.984375 17.992188 18.007812 C 17.984375 17.949219 17.992188 17.890625 18.015625 17.832031 C 18.164062 17.433594 18.957031 17.082031 19.644531 16.847656 "/></g><path style=" stroke:none;fill-rule:nonzero;fill:#cc6e4e;fill-opacity:1;" d="M 24.796875 21.015625 L 22.015625 20.644531 C 21.789062 20.488281 21.566406 20.355469 21.351562 20.246094 C 21.3125 20.222656 21.269531 20.203125 21.230469 20.183594 C 21.1875 20.164062 21.148438 20.144531 21.109375 20.125 C 21.027344 20.089844 20.949219 20.054688 20.871094 20.027344 C 20.832031 20.011719 20.792969 19.996094 20.753906 19.984375 C 20.734375 19.976562 20.714844 19.96875 20.695312 19.964844 C 20.027344 19.738281 19.453125 19.746094 19.054688 19.949219 C 19.046875 19.953125 19.035156 19.957031 19.027344 19.964844 C 19.023438 19.964844 19.023438 19.964844 19.019531 19.96875 C 19.011719 19.972656 19.003906 19.976562 18.996094 19.980469 C 18.992188 19.984375 18.992188 19.984375 18.992188 19.984375 C 18.984375 19.988281 18.976562 19.992188 18.96875 19.996094 C 18.964844 20 18.960938 20.003906 18.957031 20.007812 C 18.953125 20.007812 18.949219 20.011719 18.945312 20.011719 C 18.941406 20.015625 18.933594 20.019531 18.929688 20.023438 C 18.925781 20.027344 18.921875 20.027344 18.917969 20.03125 C 18.914062 20.035156 18.90625 20.039062 18.902344 20.042969 C 18.886719 20.054688 18.871094 20.066406 18.855469 20.078125 C 18.847656 20.085938 18.839844 20.089844 18.832031 20.097656 C 18.828125 20.101562 18.824219 20.105469 18.816406 20.109375 C 18.8125 20.113281 18.808594 20.117188 18.804688 20.121094 C 18.800781 20.125 18.796875 20.128906 18.792969 20.136719 C 18.789062 20.136719 18.789062 20.136719 18.789062 20.140625 C 18.78125 20.144531 18.773438 20.152344 18.769531 20.15625 C 18.761719 20.164062 18.753906 20.171875 18.75 20.179688 C 18.742188 20.1875 18.730469 20.199219 18.722656 20.207031 L 18.378906 20.160156 C 18.902344 19.808594 19.359375 19.570312 19.359375 19.570312 C 19.359375 19.570312 20.257812 19.246094 21.226562 19.042969 L 22.652344 19.1875 C 23.082031 19.316406 23.5625 19.386719 23.960938 19.320312 L 24.285156 19.351562 C 24.371094 20.015625 24.5625 20.558594 24.796875 21.015625 "/><path style=" stroke:none;fill-rule:nonzero;fill:#c95b00;fill-opacity:1;" d="M 21.351562 20.246094 C 21.566406 20.355469 21.789062 20.488281 22.015625 20.644531 L 21.769531 20.613281 L 21.675781 20.601562 L 18.753906 20.210938 L 18.722656 20.207031 C 18.730469 20.199219 18.742188 20.1875 18.75 20.179688 C 18.753906 20.171875 18.761719 20.164062 18.769531 20.15625 C 18.773438 20.152344 18.78125 20.144531 18.789062 20.140625 C 18.789062 20.136719 18.789062 20.136719 18.792969 20.136719 C 18.796875 20.128906 18.800781 20.125 18.804688 20.121094 C 18.808594 20.117188 18.8125 20.113281 18.816406 20.109375 C 18.824219 20.105469 18.828125 20.101562 18.832031 20.097656 C 18.839844 20.089844 18.847656 20.085938 18.855469 20.078125 C 18.871094 20.066406 18.886719 20.054688 18.902344 20.042969 C 18.90625 20.039062 18.914062 20.035156 18.917969 20.03125 C 18.921875 20.027344 18.925781 20.027344 18.929688 20.023438 C 18.933594 20.019531 18.941406 20.015625 18.945312 20.011719 C 18.949219 20.011719 18.953125 20.007812 18.957031 20.007812 C 18.960938 20.003906 18.964844 20 18.96875 19.996094 C 18.976562 19.992188 18.984375 19.988281 18.992188 19.984375 C 18.992188 19.984375 18.992188 19.984375 18.996094 19.980469 C 19.003906 19.976562 19.011719 19.972656 19.019531 19.96875 C 19.023438 19.964844 19.023438 19.964844 19.027344 19.964844 C 19.035156 19.957031 19.046875 19.953125 19.054688 19.949219 C 19.453125 19.746094 20.027344 19.738281 20.695312 19.964844 C 20.714844 19.96875 20.734375 19.976562 20.753906 19.984375 C 20.792969 19.996094 20.832031 20.011719 20.871094 20.027344 C 20.949219 20.054688 21.027344 20.089844 21.109375 20.125 C 21.148438 20.144531 21.1875 20.164062 21.230469 20.183594 C 21.269531 20.203125 21.3125 20.222656 21.351562 20.246094 "/><path style=" stroke:none;fill-rule:nonzero;fill:#c95b00;fill-opacity:1;" d="M 23.960938 19.320312 C 23.5625 19.386719 23.082031 19.316406 22.652344 19.1875 L 23.664062 19.289062 L 23.960938 19.320312 "/><path style=" stroke:none;fill-rule:nonzero;fill:#f9b995;fill-opacity:1;" d="M 30.082031 21.445312 C 30.117188 21.539062 30.148438 21.632812 30.171875 21.730469 L 30.085938 21.71875 L 29.714844 21.671875 C 29.707031 21.660156 29.703125 21.644531 29.695312 21.632812 C 29.691406 21.628906 29.6875 21.625 29.6875 21.621094 C 29.632812 21.550781 29.597656 21.503906 29.582031 21.488281 C 29.582031 21.488281 29.582031 21.488281 29.578125 21.488281 C 29.578125 21.488281 28.757812 20.65625 27.832031 19.710938 L 28.519531 19.777344 C 29.292969 20.570312 29.921875 21.203125 29.921875 21.203125 C 29.921875 21.203125 29.921875 21.203125 29.921875 21.207031 C 29.964844 21.25 30 21.292969 30.027344 21.335938 C 30.027344 21.339844 30.03125 21.34375 30.035156 21.347656 C 30.039062 21.355469 30.042969 21.363281 30.046875 21.371094 C 30.058594 21.394531 30.070312 21.421875 30.082031 21.445312 "/><path style=" stroke:none;fill-rule:nonzero;fill:#f9a073;fill-opacity:1;" d="M 29.714844 21.671875 L 26.917969 21.296875 L 25.046875 21.050781 L 24.796875 21.015625 C 24.5625 20.558594 24.371094 20.015625 24.285156 19.351562 L 24.398438 19.363281 L 27.832031 19.710938 C 28.757812 20.65625 29.578125 21.488281 29.578125 21.488281 C 29.582031 21.488281 29.582031 21.488281 29.582031 21.488281 C 29.597656 21.503906 29.632812 21.550781 29.6875 21.621094 C 29.6875 21.625 29.691406 21.628906 29.695312 21.632812 C 29.703125 21.644531 29.707031 21.660156 29.714844 21.671875 "/><g clip-rule="nonzero" clip-path="url(#0f2b199294)"><path style=" stroke:none;fill-rule:nonzero;fill:#fff0eb;fill-opacity:1;" d="M 19.644531 16.847656 C 19.648438 16.851562 19.648438 16.859375 19.648438 16.863281 C 19.5 17.109375 19.277344 17.339844 18.996094 17.515625 C 18.675781 17.71875 18.332031 17.820312 18.015625 17.832031 C 18.164062 17.433594 18.957031 17.082031 19.644531 16.847656 "/></g><g clip-rule="nonzero" clip-path="url(#afa95bb3af)"><path style=" stroke:none;fill-rule:nonzero;fill:#f4aa73;fill-opacity:1;" d="M 33.558594 19.519531 L 33.40625 21.394531 L 33.230469 21.378906 C 33.191406 21.363281 33.148438 21.355469 33.097656 21.351562 C 33.097656 21.351562 33.09375 21.351562 33.09375 21.351562 C 33.089844 21.347656 33.085938 21.347656 33.082031 21.347656 C 33.039062 21.347656 32.996094 21.351562 32.964844 21.355469 L 32.707031 21.335938 C 32.671875 21.320312 32.628906 21.3125 32.578125 21.308594 C 32.574219 21.308594 32.574219 21.308594 32.574219 21.308594 C 32.570312 21.304688 32.566406 21.304688 32.5625 21.304688 C 32.515625 21.304688 32.476562 21.304688 32.441406 21.3125 L 17.1875 20.066406 L 17.183594 20.066406 C 17.101562 20.035156 16.332031 19.742188 15.765625 19.515625 C 15.429688 19.386719 15.164062 19.277344 15.167969 19.253906 C 15.167969 19.25 15.171875 19.246094 15.183594 19.238281 C 15.246094 19.207031 15.496094 19.140625 15.804688 19.0625 C 15.808594 19.0625 15.8125 19.0625 15.820312 19.0625 C 15.828125 19.058594 15.839844 19.054688 15.847656 19.054688 C 15.90625 19.039062 15.964844 19.023438 16.023438 19.011719 C 16.039062 19.007812 16.050781 19.003906 16.066406 19 C 16.132812 18.984375 16.199219 18.96875 16.265625 18.953125 C 16.273438 18.949219 16.28125 18.949219 16.289062 18.945312 C 16.359375 18.929688 16.425781 18.914062 16.492188 18.898438 C 16.5 18.898438 16.507812 18.894531 16.515625 18.894531 C 16.585938 18.875 16.65625 18.859375 16.722656 18.84375 C 16.730469 18.84375 16.742188 18.839844 16.75 18.839844 C 16.753906 18.835938 16.757812 18.835938 16.765625 18.835938 C 16.773438 18.832031 16.78125 18.832031 16.789062 18.828125 C 16.816406 18.820312 16.847656 18.816406 16.875 18.808594 C 16.878906 18.808594 16.886719 18.804688 16.890625 18.804688 C 16.890625 18.804688 16.890625 18.804688 16.894531 18.804688 C 16.898438 18.804688 16.90625 18.800781 16.914062 18.800781 C 16.929688 18.796875 16.945312 18.792969 16.957031 18.789062 C 16.964844 18.789062 16.96875 18.785156 16.972656 18.785156 C 16.976562 18.785156 16.976562 18.785156 16.976562 18.785156 C 16.984375 18.78125 16.992188 18.78125 16.996094 18.78125 C 16.996094 18.78125 16.996094 18.78125 17 18.78125 C 17.003906 18.777344 17.011719 18.777344 17.019531 18.773438 C 17.027344 18.773438 17.03125 18.773438 17.039062 18.769531 C 17.050781 18.769531 17.058594 18.765625 17.070312 18.761719 C 17.078125 18.761719 17.085938 18.757812 17.089844 18.757812 C 17.09375 18.757812 17.097656 18.757812 17.101562 18.757812 C 17.105469 18.753906 17.109375 18.753906 17.117188 18.753906 C 17.121094 18.75 17.128906 18.75 17.136719 18.746094 C 17.148438 18.746094 17.164062 18.742188 17.175781 18.738281 C 17.183594 18.734375 17.191406 18.734375 17.195312 18.734375 C 17.195312 18.734375 17.199219 18.734375 17.199219 18.734375 C 17.203125 18.730469 17.210938 18.730469 17.214844 18.730469 C 17.21875 18.726562 17.21875 18.726562 17.222656 18.726562 C 17.226562 18.726562 17.234375 18.722656 17.242188 18.722656 C 17.246094 18.722656 17.25 18.71875 17.253906 18.71875 C 17.257812 18.71875 17.257812 18.71875 17.261719 18.71875 C 17.269531 18.714844 17.277344 18.714844 17.285156 18.710938 C 17.289062 18.710938 17.289062 18.710938 17.292969 18.710938 C 17.292969 18.710938 17.292969 18.710938 17.296875 18.710938 L 17.296875 18.707031 L 32.582031 19.464844 C 32.617188 19.480469 32.65625 19.488281 32.703125 19.492188 C 32.707031 19.492188 32.710938 19.492188 32.714844 19.492188 C 32.714844 19.492188 32.71875 19.492188 32.71875 19.492188 C 32.773438 19.496094 32.820312 19.492188 32.859375 19.480469 L 33.105469 19.496094 C 33.136719 19.507812 33.179688 19.515625 33.222656 19.519531 L 33.226562 19.519531 C 33.230469 19.519531 33.234375 19.523438 33.238281 19.523438 C 33.238281 19.523438 33.238281 19.523438 33.242188 19.523438 C 33.292969 19.523438 33.339844 19.519531 33.378906 19.511719 L 33.558594 19.519531 "/></g><g clip-rule="nonzero" clip-path="url(#332c455b3f)"><path style=" stroke:none;fill-rule:nonzero;fill:#1e1e1e;fill-opacity:1;" d="M 15.769531 19.375 C 15.765625 19.425781 15.765625 19.472656 15.765625 19.515625 C 15.429688 19.386719 15.164062 19.277344 15.167969 19.253906 C 15.167969 19.25 15.171875 19.246094 15.175781 19.242188 C 15.179688 19.242188 15.179688 19.238281 15.183594 19.238281 C 15.246094 19.207031 15.484375 19.144531 15.78125 19.070312 C 15.789062 19.070312 15.796875 19.066406 15.804688 19.0625 C 15.792969 19.136719 15.78125 19.21875 15.773438 19.296875 C 15.773438 19.324219 15.769531 19.351562 15.769531 19.375 "/></g><g clip-rule="nonzero" clip-path="url(#cc54964bdf)"><path style=" stroke:none;fill-rule:nonzero;fill:#ffc692;fill-opacity:1;" d="M 17.464844 19.125 C 17.296875 19.113281 17.207031 19.21875 17.179688 19.355469 C 17.015625 19.375 16.835938 19.394531 16.652344 19.402344 C 16.328125 19.417969 16.023438 19.40625 15.769531 19.375 C 15.769531 19.351562 15.773438 19.324219 15.773438 19.296875 C 15.78125 19.21875 15.792969 19.136719 15.804688 19.0625 C 16.347656 18.929688 17.070312 18.761719 17.253906 18.71875 C 17.234375 18.753906 17.222656 18.789062 17.21875 18.832031 C 17.207031 18.984375 17.285156 19.113281 17.464844 19.125 "/></g><g clip-rule="nonzero" clip-path="url(#bfee31dec9)"><path style=" stroke:none;fill-rule:nonzero;fill:#474747;fill-opacity:1;" d="M 15.75 19.292969 C 15.75 19.320312 15.746094 19.34375 15.746094 19.371094 C 15.507812 19.34375 15.308594 19.296875 15.175781 19.242188 C 15.179688 19.242188 15.179688 19.238281 15.183594 19.238281 C 15.246094 19.207031 15.484375 19.144531 15.78125 19.070312 C 15.769531 19.140625 15.757812 19.214844 15.75 19.292969 "/></g><path style=" stroke:none;fill-rule:nonzero;fill:#ffb127;fill-opacity:1;" d="M 33.410156 19.511719 L 33.367188 20.066406 L 17.554688 19.128906 C 17.375 19.121094 17.238281 18.984375 17.253906 18.832031 C 17.257812 18.789062 17.273438 18.746094 17.296875 18.707031 L 32.550781 19.464844 C 32.585938 19.480469 32.636719 19.488281 32.6875 19.492188 C 32.691406 19.492188 32.699219 19.492188 32.703125 19.492188 C 32.75 19.492188 32.792969 19.488281 32.828125 19.480469 L 33.074219 19.492188 C 33.109375 19.507812 33.15625 19.515625 33.207031 19.519531 C 33.214844 19.519531 33.21875 19.519531 33.222656 19.519531 L 33.226562 19.519531 C 33.269531 19.523438 33.3125 19.519531 33.347656 19.507812 L 33.410156 19.511719 "/><path style=" stroke:none;fill-rule:nonzero;fill:#f9880d;fill-opacity:1;" d="M 33.367188 20.066406 L 33.304688 20.835938 L 17.507812 19.691406 C 17.328125 19.675781 17.195312 19.542969 17.207031 19.390625 C 17.21875 19.234375 17.375 19.121094 17.554688 19.128906 L 33.367188 20.066406 "/><path style=" stroke:none;fill-rule:nonzero;fill:#db6800;fill-opacity:1;" d="M 33.304688 20.835938 L 33.261719 21.382812 L 33.195312 21.375 C 33.164062 21.363281 33.125 21.355469 33.082031 21.347656 C 33.074219 21.347656 33.070312 21.347656 33.066406 21.347656 C 33.015625 21.34375 32.96875 21.347656 32.929688 21.355469 L 32.675781 21.332031 C 32.644531 21.320312 32.605469 21.3125 32.5625 21.304688 C 32.554688 21.304688 32.550781 21.304688 32.542969 21.304688 C 32.496094 21.300781 32.449219 21.304688 32.410156 21.3125 L 17.183594 20.066406 C 17.164062 20.027344 17.15625 19.988281 17.160156 19.945312 C 17.175781 19.792969 17.328125 19.675781 17.507812 19.691406 L 33.304688 20.835938 "/><path style=" stroke:none;fill-rule:nonzero;fill:#d80e0e;fill-opacity:1;" d="M 35.148438 20.574219 C 35.191406 20.046875 35.082031 19.613281 34.835938 19.601562 L 33.679688 19.535156 L 33.605469 20.464844 L 33.527344 21.394531 L 34.683594 21.492188 C 34.929688 21.511719 35.109375 21.097656 35.148438 20.574219 "/><path style=" stroke:none;fill-rule:nonzero;fill:#f45353;fill-opacity:1;" d="M 35.019531 20.242188 C 35.003906 20.414062 34.960938 20.566406 34.894531 20.671875 C 34.855469 20.738281 34.785156 20.8125 34.695312 20.804688 L 34.050781 20.757812 C 34.097656 20.375 34.125 19.988281 34.132812 19.605469 L 34.789062 19.644531 C 34.878906 19.648438 34.933594 19.730469 34.964844 19.800781 C 35.015625 19.914062 35.03125 20.070312 35.019531 20.242188 "/><path style=" stroke:none;fill-rule:nonzero;fill:#c1c0bf;fill-opacity:1;" d="M 33.871094 20.59375 C 33.871094 20.609375 33.867188 20.625 33.867188 20.640625 C 33.867188 20.671875 33.863281 20.703125 33.859375 20.730469 C 33.835938 21 33.8125 21.25 33.789062 21.46875 L 33.667969 21.460938 C 33.667969 21.457031 33.667969 21.457031 33.667969 21.453125 C 33.640625 21.441406 33.605469 21.433594 33.566406 21.429688 C 33.515625 21.425781 33.472656 21.429688 33.441406 21.441406 L 33.265625 21.425781 C 33.265625 21.421875 33.265625 21.417969 33.265625 21.414062 C 33.253906 21.40625 33.238281 21.398438 33.222656 21.394531 C 33.183594 21.378906 33.140625 21.367188 33.089844 21.363281 C 33.039062 21.359375 32.988281 21.363281 32.953125 21.371094 C 32.9375 21.375 32.921875 21.378906 32.910156 21.382812 C 32.910156 21.386719 32.910156 21.390625 32.910156 21.398438 L 32.734375 21.382812 C 32.734375 21.378906 32.734375 21.375 32.734375 21.371094 C 32.722656 21.363281 32.707031 21.355469 32.691406 21.347656 C 32.65625 21.335938 32.609375 21.324219 32.558594 21.320312 C 32.507812 21.316406 32.460938 21.320312 32.421875 21.328125 C 32.40625 21.332031 32.394531 21.335938 32.382812 21.339844 C 32.371094 21.34375 32.363281 21.347656 32.359375 21.351562 L 32.28125 21.34375 C 32.28125 21.335938 32.28125 21.324219 32.28125 21.316406 C 32.308594 21.070312 32.335938 20.789062 32.363281 20.488281 C 32.363281 20.460938 32.367188 20.433594 32.367188 20.410156 C 32.371094 20.375 32.371094 20.339844 32.375 20.308594 C 32.398438 19.984375 32.417969 19.691406 32.425781 19.441406 C 32.425781 19.433594 32.425781 19.425781 32.425781 19.417969 L 32.511719 19.421875 C 32.519531 19.425781 32.527344 19.433594 32.535156 19.4375 C 32.542969 19.441406 32.554688 19.445312 32.566406 19.449219 C 32.601562 19.464844 32.652344 19.476562 32.703125 19.476562 C 32.757812 19.480469 32.804688 19.476562 32.84375 19.464844 C 32.863281 19.460938 32.878906 19.457031 32.890625 19.449219 C 32.890625 19.445312 32.894531 19.445312 32.894531 19.441406 L 33.0625 19.453125 C 33.066406 19.457031 33.066406 19.460938 33.066406 19.464844 C 33.074219 19.472656 33.085938 19.476562 33.09375 19.480469 C 33.132812 19.496094 33.179688 19.503906 33.234375 19.507812 C 33.285156 19.511719 33.335938 19.503906 33.375 19.496094 C 33.394531 19.492188 33.410156 19.484375 33.421875 19.476562 C 33.421875 19.476562 33.425781 19.472656 33.425781 19.472656 L 33.597656 19.480469 C 33.628906 19.496094 33.667969 19.507812 33.714844 19.507812 C 33.757812 19.511719 33.796875 19.507812 33.828125 19.496094 C 33.828125 19.496094 33.828125 19.496094 33.828125 19.492188 L 33.9375 19.5 C 33.925781 19.804688 33.90625 20.183594 33.871094 20.59375 "/><path style=" stroke:none;fill-rule:nonzero;fill:#e0e0e0;fill-opacity:1;" d="M 32.476562 20.507812 C 32.472656 20.519531 32.472656 20.535156 32.472656 20.546875 C 32.472656 20.550781 32.472656 20.554688 32.472656 20.554688 C 32.449219 20.808594 32.417969 21.0625 32.386719 21.3125 C 32.382812 21.320312 32.382812 21.328125 32.382812 21.335938 C 32.382812 21.335938 32.382812 21.339844 32.382812 21.339844 C 32.375 21.382812 32.332031 21.414062 32.285156 21.410156 C 32.285156 21.410156 32.285156 21.410156 32.28125 21.410156 C 32.269531 21.410156 32.257812 21.40625 32.246094 21.398438 C 32.234375 21.390625 32.226562 21.382812 32.21875 21.371094 C 32.207031 21.355469 32.203125 21.332031 32.203125 21.3125 C 32.242188 21.050781 32.269531 20.785156 32.292969 20.519531 C 32.296875 20.480469 32.300781 20.4375 32.304688 20.394531 C 32.308594 20.378906 32.308594 20.363281 32.308594 20.347656 C 32.328125 20.101562 32.34375 19.855469 32.351562 19.609375 C 32.351562 19.5625 32.355469 19.519531 32.355469 19.472656 C 32.355469 19.464844 32.355469 19.453125 32.355469 19.445312 C 32.355469 19.425781 32.363281 19.402344 32.378906 19.386719 C 32.390625 19.375 32.40625 19.367188 32.421875 19.363281 C 32.429688 19.359375 32.4375 19.359375 32.449219 19.359375 C 32.449219 19.359375 32.449219 19.359375 32.453125 19.359375 C 32.496094 19.359375 32.53125 19.394531 32.535156 19.4375 C 32.535156 19.441406 32.535156 19.441406 32.535156 19.445312 C 32.535156 19.449219 32.535156 19.453125 32.535156 19.453125 C 32.535156 19.464844 32.535156 19.476562 32.535156 19.488281 C 32.53125 19.527344 32.53125 19.566406 32.53125 19.605469 C 32.519531 19.90625 32.5 20.207031 32.476562 20.507812 "/><path style=" stroke:none;fill-rule:nonzero;fill:#e0e0e0;fill-opacity:1;" d="M 33 20.605469 C 32.996094 20.660156 32.992188 20.714844 32.984375 20.769531 C 32.984375 20.785156 32.980469 20.800781 32.980469 20.816406 C 32.960938 21 32.9375 21.183594 32.914062 21.367188 C 32.914062 21.371094 32.914062 21.375 32.914062 21.378906 C 32.914062 21.382812 32.914062 21.382812 32.910156 21.382812 C 32.910156 21.386719 32.910156 21.390625 32.910156 21.398438 C 32.902344 21.421875 32.882812 21.4375 32.859375 21.449219 C 32.847656 21.453125 32.832031 21.457031 32.816406 21.457031 C 32.816406 21.457031 32.816406 21.457031 32.8125 21.457031 C 32.796875 21.453125 32.78125 21.449219 32.769531 21.4375 C 32.761719 21.433594 32.753906 21.425781 32.75 21.417969 C 32.742188 21.40625 32.738281 21.394531 32.734375 21.382812 C 32.734375 21.378906 32.734375 21.375 32.734375 21.371094 C 32.734375 21.363281 32.734375 21.359375 32.734375 21.355469 C 32.734375 21.355469 32.734375 21.355469 32.734375 21.351562 C 32.761719 21.15625 32.785156 20.957031 32.808594 20.757812 C 32.808594 20.742188 32.808594 20.722656 32.8125 20.707031 C 32.816406 20.667969 32.820312 20.628906 32.824219 20.589844 C 32.851562 20.261719 32.871094 19.9375 32.882812 19.609375 C 32.882812 19.574219 32.886719 19.535156 32.886719 19.5 C 32.886719 19.492188 32.886719 19.484375 32.886719 19.476562 C 32.886719 19.472656 32.886719 19.46875 32.886719 19.46875 C 32.886719 19.460938 32.890625 19.457031 32.890625 19.449219 C 32.890625 19.445312 32.894531 19.445312 32.894531 19.441406 C 32.898438 19.433594 32.902344 19.425781 32.910156 19.417969 C 32.917969 19.410156 32.925781 19.402344 32.933594 19.398438 C 32.949219 19.390625 32.964844 19.386719 32.980469 19.386719 C 32.980469 19.386719 32.980469 19.386719 32.984375 19.386719 C 32.996094 19.386719 33.007812 19.390625 33.019531 19.394531 C 33.042969 19.40625 33.058594 19.425781 33.0625 19.453125 C 33.066406 19.457031 33.066406 19.460938 33.066406 19.464844 C 33.066406 19.46875 33.066406 19.472656 33.066406 19.476562 C 33.066406 19.492188 33.066406 19.503906 33.066406 19.519531 C 33.0625 19.550781 33.0625 19.582031 33.0625 19.617188 C 33.050781 19.945312 33.03125 20.277344 33 20.605469 "/><path style=" stroke:none;fill-rule:nonzero;fill:#e0e0e0;fill-opacity:1;" d="M 33.53125 20.640625 C 33.527344 20.695312 33.519531 20.753906 33.515625 20.8125 C 33.515625 20.828125 33.511719 20.84375 33.511719 20.863281 C 33.492188 21.050781 33.46875 21.238281 33.441406 21.425781 C 33.441406 21.429688 33.441406 21.4375 33.4375 21.441406 C 33.433594 21.460938 33.417969 21.476562 33.402344 21.488281 C 33.386719 21.496094 33.367188 21.503906 33.347656 21.5 C 33.347656 21.5 33.34375 21.5 33.34375 21.5 C 33.328125 21.5 33.3125 21.492188 33.300781 21.484375 C 33.292969 21.476562 33.285156 21.46875 33.277344 21.460938 C 33.273438 21.449219 33.269531 21.4375 33.265625 21.425781 C 33.265625 21.421875 33.265625 21.417969 33.265625 21.414062 C 33.265625 21.410156 33.265625 21.40625 33.265625 21.398438 C 33.289062 21.222656 33.3125 21.046875 33.328125 20.871094 C 33.332031 20.851562 33.332031 20.835938 33.335938 20.820312 C 33.339844 20.757812 33.347656 20.695312 33.351562 20.632812 C 33.382812 20.300781 33.402344 19.96875 33.414062 19.640625 C 33.414062 19.601562 33.417969 19.566406 33.417969 19.527344 C 33.417969 19.519531 33.417969 19.511719 33.417969 19.503906 C 33.417969 19.503906 33.417969 19.5 33.417969 19.496094 C 33.417969 19.492188 33.421875 19.484375 33.421875 19.476562 C 33.421875 19.476562 33.425781 19.472656 33.425781 19.472656 C 33.429688 19.460938 33.433594 19.453125 33.441406 19.445312 C 33.449219 19.4375 33.457031 19.433594 33.464844 19.425781 C 33.476562 19.417969 33.496094 19.414062 33.511719 19.414062 C 33.511719 19.414062 33.515625 19.414062 33.515625 19.414062 C 33.53125 19.417969 33.546875 19.421875 33.5625 19.429688 C 33.570312 19.4375 33.578125 19.445312 33.582031 19.453125 C 33.585938 19.460938 33.59375 19.46875 33.59375 19.480469 C 33.597656 19.488281 33.597656 19.496094 33.597656 19.503906 C 33.597656 19.511719 33.597656 19.523438 33.597656 19.53125 C 33.59375 19.574219 33.59375 19.613281 33.59375 19.65625 C 33.582031 19.984375 33.5625 20.3125 33.53125 20.640625 "/><path style=" stroke:none;fill-rule:nonzero;fill:#e0e0e0;fill-opacity:1;" d="M 33.949219 20.507812 L 33.949219 20.511719 C 33.945312 20.554688 33.941406 20.597656 33.9375 20.640625 C 33.9375 20.660156 33.933594 20.679688 33.933594 20.699219 C 33.929688 20.71875 33.929688 20.734375 33.929688 20.75 C 33.90625 20.988281 33.878906 21.222656 33.847656 21.457031 C 33.839844 21.507812 33.796875 21.539062 33.75 21.535156 C 33.75 21.535156 33.75 21.535156 33.746094 21.535156 C 33.734375 21.53125 33.722656 21.53125 33.714844 21.523438 C 33.699219 21.515625 33.691406 21.507812 33.683594 21.496094 C 33.675781 21.484375 33.671875 21.472656 33.667969 21.460938 C 33.667969 21.457031 33.667969 21.457031 33.667969 21.453125 C 33.667969 21.445312 33.667969 21.4375 33.667969 21.433594 C 33.695312 21.230469 33.722656 21.023438 33.742188 20.820312 C 33.742188 20.800781 33.746094 20.785156 33.746094 20.769531 C 33.75 20.726562 33.753906 20.683594 33.757812 20.644531 C 33.789062 20.324219 33.808594 20 33.816406 19.679688 C 33.820312 19.636719 33.820312 19.59375 33.820312 19.546875 C 33.820312 19.539062 33.824219 19.535156 33.824219 19.527344 C 33.824219 19.515625 33.824219 19.507812 33.828125 19.496094 C 33.828125 19.496094 33.828125 19.496094 33.828125 19.492188 C 33.832031 19.484375 33.839844 19.476562 33.847656 19.46875 C 33.855469 19.457031 33.867188 19.449219 33.882812 19.441406 C 33.890625 19.4375 33.902344 19.4375 33.914062 19.4375 C 33.917969 19.4375 33.917969 19.4375 33.917969 19.4375 C 33.96875 19.4375 34.003906 19.476562 34 19.527344 C 34 19.585938 34 19.644531 33.996094 19.707031 C 33.988281 19.972656 33.972656 20.238281 33.949219 20.507812 "/><path style=" stroke:none;fill-rule:nonzero;fill:#d3d3d3;fill-opacity:1;" d="M 32.828125 20.542969 C 32.824219 20.582031 32.820312 20.621094 32.816406 20.660156 C 32.8125 20.679688 32.8125 20.695312 32.808594 20.710938 C 32.6875 20.660156 32.574219 20.589844 32.476562 20.511719 C 32.476562 20.507812 32.476562 20.503906 32.476562 20.503906 C 32.476562 20.488281 32.476562 20.476562 32.480469 20.460938 C 32.503906 20.160156 32.523438 19.859375 32.535156 19.558594 C 32.535156 19.519531 32.535156 19.480469 32.539062 19.441406 C 32.546875 19.445312 32.554688 19.449219 32.566406 19.453125 C 32.601562 19.46875 32.652344 19.480469 32.703125 19.480469 C 32.757812 19.484375 32.804688 19.480469 32.84375 19.46875 C 32.863281 19.464844 32.878906 19.460938 32.890625 19.453125 C 32.890625 19.492188 32.886719 19.527344 32.886719 19.5625 C 32.875 19.890625 32.855469 20.21875 32.828125 20.542969 "/><path style=" stroke:none;fill-rule:nonzero;fill:#f2f2f2;fill-opacity:1;" d="M 32.480469 20.460938 C 32.476562 20.476562 32.476562 20.488281 32.476562 20.503906 C 32.476562 20.503906 32.476562 20.507812 32.476562 20.511719 C 32.4375 20.480469 32.402344 20.445312 32.367188 20.414062 C 32.347656 20.394531 32.328125 20.371094 32.308594 20.351562 C 32.328125 20.105469 32.34375 19.859375 32.351562 19.613281 C 32.351562 19.558594 32.355469 19.503906 32.355469 19.449219 C 32.355469 19.441406 32.355469 19.433594 32.359375 19.429688 C 32.363281 19.414062 32.367188 19.402344 32.378906 19.390625 C 32.394531 19.371094 32.421875 19.363281 32.449219 19.363281 C 32.449219 19.363281 32.449219 19.363281 32.453125 19.363281 C 32.457031 19.363281 32.460938 19.363281 32.464844 19.363281 C 32.476562 19.367188 32.484375 19.371094 32.496094 19.375 C 32.507812 19.382812 32.515625 19.394531 32.523438 19.40625 C 32.527344 19.414062 32.53125 19.429688 32.535156 19.441406 C 32.535156 19.480469 32.535156 19.519531 32.535156 19.558594 C 32.523438 19.859375 32.503906 20.160156 32.480469 20.460938 "/><path style=" stroke:none;fill-rule:nonzero;fill:#d3d3d3;fill-opacity:1;" d="M 33.355469 20.585938 C 33.351562 20.648438 33.34375 20.710938 33.339844 20.773438 C 33.335938 20.789062 33.335938 20.804688 33.332031 20.824219 C 33.308594 20.824219 33.285156 20.820312 33.261719 20.820312 C 33.164062 20.8125 33.074219 20.796875 32.984375 20.773438 C 32.984375 20.753906 32.988281 20.738281 32.988281 20.722656 C 32.996094 20.667969 33 20.613281 33.003906 20.5625 C 33.035156 20.230469 33.054688 19.898438 33.066406 19.570312 C 33.066406 19.539062 33.066406 19.503906 33.070312 19.472656 C 33.078125 19.476562 33.085938 19.480469 33.09375 19.484375 C 33.132812 19.5 33.179688 19.507812 33.234375 19.511719 C 33.285156 19.515625 33.335938 19.507812 33.375 19.5 C 33.390625 19.496094 33.410156 19.488281 33.421875 19.480469 C 33.421875 19.519531 33.417969 19.554688 33.417969 19.59375 C 33.40625 19.921875 33.386719 20.253906 33.355469 20.585938 "/><path style=" stroke:none;fill-rule:nonzero;fill:#f2f2f2;fill-opacity:1;" d="M 33.066406 19.570312 C 33.054688 19.898438 33.035156 20.230469 33.003906 20.5625 C 33 20.613281 32.996094 20.667969 32.988281 20.722656 C 32.988281 20.738281 32.984375 20.753906 32.984375 20.773438 C 32.925781 20.753906 32.867188 20.734375 32.8125 20.710938 C 32.8125 20.710938 32.8125 20.710938 32.808594 20.710938 C 32.8125 20.695312 32.8125 20.679688 32.816406 20.660156 C 32.820312 20.621094 32.824219 20.582031 32.828125 20.542969 C 32.855469 20.21875 32.875 19.890625 32.886719 19.5625 C 32.886719 19.527344 32.890625 19.492188 32.890625 19.453125 C 32.890625 19.453125 32.890625 19.449219 32.894531 19.445312 C 32.898438 19.4375 32.902344 19.429688 32.910156 19.421875 C 32.917969 19.414062 32.925781 19.40625 32.933594 19.402344 C 32.945312 19.394531 32.964844 19.390625 32.980469 19.390625 C 32.980469 19.390625 32.980469 19.390625 32.984375 19.390625 C 32.996094 19.390625 33.007812 19.394531 33.019531 19.402344 C 33.042969 19.410156 33.058594 19.433594 33.0625 19.457031 C 33.0625 19.460938 33.066406 19.464844 33.066406 19.46875 C 33.066406 19.472656 33.066406 19.472656 33.070312 19.472656 C 33.066406 19.503906 33.066406 19.539062 33.066406 19.570312 "/><path style=" stroke:none;fill-rule:nonzero;fill:#d3d3d3;fill-opacity:1;" d="M 33.761719 20.597656 C 33.757812 20.636719 33.753906 20.679688 33.75 20.722656 C 33.75 20.738281 33.746094 20.753906 33.746094 20.773438 C 33.671875 20.792969 33.59375 20.808594 33.515625 20.816406 C 33.515625 20.800781 33.515625 20.78125 33.519531 20.765625 C 33.523438 20.707031 33.53125 20.648438 33.535156 20.59375 C 33.566406 20.265625 33.585938 19.9375 33.597656 19.609375 C 33.597656 19.570312 33.597656 19.527344 33.601562 19.484375 C 33.628906 19.5 33.667969 19.511719 33.714844 19.511719 C 33.757812 19.515625 33.796875 19.511719 33.824219 19.503906 C 33.824219 19.546875 33.824219 19.589844 33.820312 19.636719 C 33.8125 19.957031 33.792969 20.277344 33.761719 20.597656 "/><path style=" stroke:none;fill-rule:nonzero;fill:#f2f2f2;fill-opacity:1;" d="M 33.597656 19.609375 C 33.585938 19.9375 33.566406 20.265625 33.535156 20.59375 C 33.53125 20.652344 33.523438 20.707031 33.519531 20.765625 C 33.515625 20.78125 33.515625 20.800781 33.515625 20.816406 C 33.457031 20.824219 33.394531 20.824219 33.335938 20.824219 C 33.335938 20.824219 33.332031 20.824219 33.332031 20.824219 C 33.335938 20.808594 33.335938 20.789062 33.339844 20.773438 C 33.34375 20.710938 33.351562 20.648438 33.355469 20.585938 C 33.386719 20.253906 33.40625 19.921875 33.417969 19.59375 C 33.417969 19.554688 33.421875 19.519531 33.421875 19.480469 C 33.421875 19.480469 33.425781 19.476562 33.425781 19.476562 C 33.429688 19.464844 33.433594 19.457031 33.441406 19.449219 C 33.449219 19.441406 33.453125 19.4375 33.464844 19.429688 C 33.476562 19.421875 33.492188 19.417969 33.511719 19.417969 C 33.511719 19.417969 33.511719 19.417969 33.515625 19.417969 C 33.53125 19.421875 33.546875 19.425781 33.5625 19.433594 C 33.570312 19.441406 33.578125 19.449219 33.582031 19.457031 C 33.585938 19.464844 33.589844 19.472656 33.59375 19.484375 L 33.597656 19.484375 C 33.597656 19.484375 33.597656 19.484375 33.601562 19.484375 C 33.597656 19.527344 33.597656 19.570312 33.597656 19.609375 "/><path style=" stroke:none;fill-rule:nonzero;fill:#f2f2f2;fill-opacity:1;" d="M 33.953125 20.460938 L 33.953125 20.464844 C 33.949219 20.523438 33.941406 20.585938 33.9375 20.644531 C 33.9375 20.664062 33.933594 20.6875 33.933594 20.707031 C 33.90625 20.714844 33.882812 20.726562 33.859375 20.734375 C 33.824219 20.75 33.785156 20.761719 33.746094 20.773438 C 33.746094 20.753906 33.75 20.738281 33.75 20.722656 C 33.753906 20.679688 33.757812 20.636719 33.761719 20.597656 C 33.792969 20.277344 33.8125 19.957031 33.820312 19.636719 C 33.824219 19.589844 33.824219 19.546875 33.824219 19.503906 C 33.828125 19.5 33.828125 19.5 33.828125 19.5 C 33.828125 19.5 33.828125 19.5 33.828125 19.496094 C 33.832031 19.488281 33.839844 19.480469 33.84375 19.472656 C 33.855469 19.460938 33.867188 19.453125 33.878906 19.445312 C 33.890625 19.441406 33.902344 19.441406 33.914062 19.441406 C 33.917969 19.441406 33.917969 19.441406 33.917969 19.441406 C 33.96875 19.445312 34.003906 19.480469 34 19.53125 C 34 19.589844 34 19.648438 33.996094 19.710938 C 33.988281 19.960938 33.972656 20.210938 33.953125 20.460938 "/><path style=" stroke:none;fill-rule:nonzero;fill:#fc9e17;fill-opacity:1;" d="M 32.34375 20.003906 L 32.273438 20 C 32.28125 19.886719 32.285156 19.773438 32.289062 19.660156 C 32.292969 19.609375 32.292969 19.554688 32.292969 19.5 C 32.292969 19.492188 32.296875 19.488281 32.296875 19.480469 C 32.296875 19.472656 32.296875 19.460938 32.296875 19.453125 C 32.296875 19.453125 32.296875 19.453125 32.296875 19.449219 L 32.367188 19.453125 C 32.367188 19.457031 32.367188 19.460938 32.367188 19.460938 C 32.367188 19.46875 32.367188 19.480469 32.367188 19.488281 C 32.363281 19.496094 32.363281 19.503906 32.363281 19.507812 C 32.363281 19.5625 32.359375 19.617188 32.359375 19.671875 C 32.355469 19.78125 32.351562 19.890625 32.34375 20.003906 "/><path style=" stroke:none;fill-rule:nonzero;fill:#ea7500;fill-opacity:1;" d="M 32.316406 20.398438 C 32.316406 20.4375 32.3125 20.480469 32.308594 20.519531 C 32.300781 20.597656 32.292969 20.679688 32.285156 20.757812 L 32.214844 20.753906 C 32.222656 20.671875 32.230469 20.589844 32.238281 20.511719 C 32.242188 20.46875 32.246094 20.429688 32.25 20.386719 C 32.257812 20.257812 32.265625 20.128906 32.273438 20 L 32.34375 20.003906 C 32.335938 20.132812 32.328125 20.265625 32.316406 20.398438 "/><path style=" stroke:none;fill-rule:nonzero;fill:#c95b00;fill-opacity:1;" d="M 32.285156 20.757812 C 32.265625 20.9375 32.242188 21.117188 32.21875 21.296875 L 32.148438 21.289062 C 32.175781 21.109375 32.195312 20.933594 32.214844 20.753906 L 32.285156 20.757812 "/><g clip-rule="nonzero" clip-path="url(#df405119aa)"><path style=" stroke:none;fill-rule:nonzero;fill:#ffc7ab;fill-opacity:1;" d="M 35.121094 36.605469 C 34.421875 37.167969 33.445312 37.738281 32.515625 38.089844 C 32.398438 38.132812 32.285156 38.171875 32.167969 38.207031 C 31.871094 38.304688 31.582031 38.375 31.316406 38.40625 C 30.628906 37.199219 29.929688 33.039062 27.179688 32.066406 C 26.265625 31.746094 25.5625 31.234375 25.023438 30.515625 C 25.023438 30.515625 25.019531 30.511719 25.019531 30.511719 C 25 30.488281 24.984375 30.46875 24.964844 30.445312 C 24.878906 30.335938 24.792969 30.21875 24.710938 30.097656 C 24.695312 30.074219 24.679688 30.050781 24.664062 30.027344 C 24.644531 30 24.628906 29.972656 24.609375 29.945312 C 24.601562 29.933594 24.59375 29.917969 24.582031 29.90625 C 24.574219 29.890625 24.566406 29.878906 24.558594 29.863281 C 24.539062 29.835938 24.519531 29.808594 24.503906 29.78125 C 24.484375 29.75 24.46875 29.722656 24.449219 29.695312 C 24.441406 29.675781 24.429688 29.65625 24.417969 29.640625 C 24.394531 29.601562 24.371094 29.558594 24.347656 29.519531 C 24.339844 29.503906 24.332031 29.492188 24.324219 29.476562 C 24.320312 29.472656 24.316406 29.46875 24.316406 29.460938 C 24.300781 29.433594 24.28125 29.40625 24.265625 29.375 C 24.253906 29.347656 24.238281 29.324219 24.222656 29.296875 C 24.203125 29.257812 24.183594 29.222656 24.160156 29.183594 C 23.875 28.597656 23.664062 28.078125 23.496094 27.613281 C 23.292969 27.058594 23.152344 26.585938 23.023438 26.183594 C 22.683594 25.136719 22.632812 24.210938 20.832031 22.828125 C 19.570312 22.664062 18.191406 21.472656 18.644531 20.3125 C 18.652344 20.300781 18.65625 20.292969 18.664062 20.28125 C 18.671875 20.273438 18.675781 20.265625 18.679688 20.257812 C 18.683594 20.253906 18.6875 20.253906 18.691406 20.25 C 18.691406 20.246094 18.691406 20.246094 18.691406 20.246094 C 18.695312 20.242188 18.695312 20.242188 18.695312 20.242188 C 18.699219 20.234375 18.703125 20.230469 18.710938 20.222656 C 18.722656 20.207031 18.734375 20.195312 18.75 20.179688 C 18.753906 20.171875 18.761719 20.164062 18.769531 20.15625 C 18.773438 20.152344 18.78125 20.144531 18.789062 20.140625 C 18.789062 20.136719 18.789062 20.136719 18.792969 20.136719 C 18.796875 20.128906 18.800781 20.125 18.804688 20.121094 C 18.808594 20.117188 18.8125 20.113281 18.816406 20.109375 C 18.824219 20.105469 18.828125 20.101562 18.832031 20.097656 C 18.839844 20.089844 18.847656 20.085938 18.855469 20.078125 C 18.871094 20.066406 18.886719 20.054688 18.902344 20.042969 C 18.90625 20.039062 18.914062 20.035156 18.917969 20.03125 C 18.921875 20.027344 18.925781 20.027344 18.929688 20.023438 C 18.933594 20.019531 18.941406 20.015625 18.945312 20.011719 C 18.949219 20.011719 18.953125 20.007812 18.957031 20.007812 C 18.960938 20.003906 18.964844 20 18.96875 19.996094 C 18.976562 19.992188 18.984375 19.988281 18.992188 19.984375 C 18.992188 19.984375 18.992188 19.984375 18.996094 19.980469 C 19.003906 19.976562 19.011719 19.972656 19.019531 19.96875 C 19.023438 19.964844 19.023438 19.964844 19.027344 19.964844 C 19.035156 19.957031 19.046875 19.953125 19.054688 19.949219 C 19.453125 19.746094 20.027344 19.738281 20.695312 19.964844 C 20.714844 19.96875 20.734375 19.976562 20.753906 19.984375 C 20.792969 19.996094 20.832031 20.011719 20.871094 20.027344 C 20.949219 20.054688 21.027344 20.089844 21.109375 20.125 C 21.148438 20.144531 21.1875 20.164062 21.230469 20.183594 C 21.269531 20.203125 21.3125 20.222656 21.351562 20.246094 C 21.726562 20.4375 22.117188 20.695312 22.519531 21.023438 C 22.53125 21.035156 22.542969 21.046875 22.554688 21.054688 C 24.128906 22.355469 25.386719 24.308594 26.511719 23.765625 C 26.539062 23.75 26.5625 23.738281 26.589844 23.726562 C 27.570312 23.207031 28.535156 22.851562 29.101562 22.71875 C 29.144531 22.707031 29.183594 22.695312 29.222656 22.679688 C 29.578125 22.554688 29.777344 22.285156 29.902344 22.058594 C 29.90625 22.058594 29.90625 22.054688 29.910156 22.050781 C 29.996094 21.890625 30.058594 21.828125 30.101562 21.78125 C 30.171875 21.703125 30.210938 21.796875 30.375 22.523438 C 30.875 24.78125 30.714844 24.863281 32.507812 29.070312 C 32.507812 29.070312 34.8125 31.503906 37.386719 33.085938 C 37.925781 33.417969 36.878906 35.195312 35.121094 36.605469 "/></g><g clip-rule="nonzero" clip-path="url(#3005199572)"><path style=" stroke:none;fill-rule:nonzero;fill:#f9b995;fill-opacity:1;" d="M 35.121094 36.605469 C 34.421875 37.167969 33.445312 37.738281 32.515625 38.089844 C 32.398438 38.132812 32.285156 38.171875 32.167969 38.207031 C 31.871094 38.304688 31.582031 38.375 31.316406 38.40625 C 30.628906 37.199219 29.929688 33.039062 27.179688 32.066406 C 26.265625 31.746094 25.5625 31.234375 25.023438 30.515625 C 25.023438 30.515625 25.019531 30.511719 25.019531 30.511719 C 25 30.488281 24.984375 30.46875 24.964844 30.445312 C 24.878906 30.335938 24.792969 30.21875 24.710938 30.097656 C 24.695312 30.074219 24.679688 30.050781 24.664062 30.027344 C 24.644531 30 24.628906 29.972656 24.609375 29.945312 C 24.601562 29.933594 24.59375 29.917969 24.582031 29.90625 C 24.574219 29.890625 24.566406 29.878906 24.558594 29.863281 C 24.539062 29.835938 24.519531 29.808594 24.503906 29.78125 C 24.484375 29.75 24.46875 29.722656 24.449219 29.695312 C 24.441406 29.675781 24.429688 29.65625 24.417969 29.640625 C 24.394531 29.601562 24.371094 29.558594 24.347656 29.519531 C 24.339844 29.503906 24.332031 29.492188 24.324219 29.476562 C 24.320312 29.472656 24.316406 29.46875 24.316406 29.460938 C 24.300781 29.433594 24.28125 29.40625 24.265625 29.375 C 24.253906 29.347656 24.238281 29.324219 24.222656 29.296875 C 24.203125 29.257812 24.183594 29.222656 24.160156 29.183594 C 23.875 28.597656 23.664062 28.078125 23.496094 27.613281 C 23.292969 27.058594 23.152344 26.585938 23.023438 26.183594 C 22.683594 25.136719 22.632812 24.210938 20.832031 22.828125 C 19.570312 22.664062 18.191406 21.472656 18.644531 20.3125 C 18.652344 20.300781 18.65625 20.292969 18.664062 20.28125 C 18.671875 20.273438 18.675781 20.265625 18.679688 20.257812 C 18.683594 20.253906 18.6875 20.253906 18.691406 20.25 C 18.691406 20.246094 18.691406 20.246094 18.691406 20.246094 C 19.414062 19.859375 20.09375 19.253906 22.308594 21.019531 C 23.917969 22.296875 25.039062 24.597656 26.171875 24.050781 C 26.398438 23.9375 26.53125 23.835938 26.589844 23.726562 C 27.570312 23.207031 26.429688 22.789062 25.417969 21.558594 C 26.40625 21.0625 27.535156 21.5 28.050781 21.523438 C 28.996094 21.570312 29.816406 21.972656 29.839844 22.042969 C 29.929688 22.335938 30.023438 22.5 30.097656 22.792969 C 30.683594 24.992188 30.375 25.148438 32.167969 29.355469 C 32.167969 29.355469 34.472656 31.789062 37.046875 33.371094 C 37.550781 33.679688 36.6875 35.242188 35.121094 36.605469 "/></g><path style=" stroke:none;fill-rule:nonzero;fill:#f9a073;fill-opacity:1;" d="M 19.816406 21.980469 C 19.601562 21.988281 19.242188 21.828125 19.085938 21.746094 C 18.824219 21.605469 18.648438 21.402344 18.578125 21.15625 C 18.507812 20.917969 18.539062 20.65625 18.671875 20.402344 C 18.785156 20.1875 18.953125 20.019531 19.148438 19.917969 C 19.429688 19.777344 19.746094 19.785156 20.039062 19.941406 C 20.117188 19.984375 20.507812 20.203125 20.636719 20.414062 L 20.65625 20.445312 L 20.644531 20.480469 C 20.566406 20.738281 20.460938 20.996094 20.328125 21.25 C 20.195312 21.503906 20.042969 21.738281 19.878906 21.949219 L 19.855469 21.976562 L 19.816406 21.980469 "/><path style=" stroke:none;fill-rule:nonzero;fill:#ffe2d7;fill-opacity:1;" d="M 20.613281 20.46875 C 20.539062 20.714844 20.433594 20.96875 20.300781 21.226562 C 20.167969 21.484375 20.015625 21.714844 19.859375 21.914062 C 19.675781 21.921875 19.34375 21.785156 19.167969 21.6875 C 19.003906 21.601562 18.882812 21.492188 18.796875 21.367188 C 18.625 21.101562 18.621094 20.773438 18.789062 20.457031 C 19.035156 19.984375 19.546875 19.757812 20.046875 20.027344 C 20.195312 20.109375 20.433594 20.257812 20.558594 20.398438 C 20.582031 20.421875 20.601562 20.445312 20.613281 20.46875 "/><path style=" stroke:none;fill-rule:nonzero;fill:#fff0eb;fill-opacity:1;" d="M 20.558594 20.398438 C 20.40625 20.644531 20.183594 20.871094 19.902344 21.050781 C 19.542969 21.277344 19.148438 21.378906 18.796875 21.367188 C 18.625 21.101562 18.621094 20.773438 18.789062 20.457031 C 19.035156 19.984375 19.546875 19.757812 20.046875 20.027344 C 20.195312 20.109375 20.433594 20.257812 20.558594 20.398438 "/><g clip-rule="nonzero" clip-path="url(#f2230bb070)"><path style=" stroke:none;fill-rule:nonzero;fill:#f9a073;fill-opacity:1;" d="M 32.167969 38.207031 C 31.871094 38.304688 31.582031 38.375 31.316406 38.40625 C 30.628906 37.199219 29.929688 33.039062 27.179688 32.066406 C 26.265625 31.746094 25.5625 31.234375 25.023438 30.515625 C 25.003906 30.492188 24.984375 30.46875 24.964844 30.445312 C 24.878906 30.335938 24.792969 30.21875 24.710938 30.097656 C 24.695312 30.074219 24.679688 30.050781 24.664062 30.027344 C 24.644531 30 24.628906 29.972656 24.609375 29.945312 C 24.601562 29.933594 24.59375 29.917969 24.582031 29.90625 C 24.574219 29.890625 24.566406 29.878906 24.558594 29.863281 C 24.539062 29.835938 24.519531 29.808594 24.503906 29.78125 C 24.484375 29.75 24.46875 29.722656 24.453125 29.695312 C 24.441406 29.675781 24.429688 29.65625 24.417969 29.640625 C 24.394531 29.601562 24.371094 29.558594 24.347656 29.519531 C 24.339844 29.503906 24.332031 29.492188 24.324219 29.476562 C 24.320312 29.472656 24.316406 29.46875 24.316406 29.460938 C 24.300781 29.433594 24.28125 29.40625 24.265625 29.375 C 24.253906 29.347656 24.238281 29.324219 24.222656 29.296875 C 24.203125 29.257812 24.183594 29.222656 24.160156 29.183594 C 23.84375 28.59375 23.609375 28.066406 23.421875 27.601562 C 23.445312 27.605469 23.484375 27.589844 23.496094 27.613281 C 25.867188 33.050781 27.785156 31.234375 29.074219 32.648438 C 29.453125 33.066406 30.164062 33.339844 32.167969 38.207031 "/></g></g></svg>