<svg xmlns="http://www.w3.org/2000/svg" xmlns:xlink="http://www.w3.org/1999/xlink" width="57" zoomAndPan="magnify" viewBox="0 0 42.75 42.75" height="57" preserveAspectRatio="xMidYMid meet" version="1.2"><defs><clipPath id="0d1f46e34b"><path d="M 9.75 15.433594 L 33.609375 15.433594 L 33.609375 30 L 9.75 30 Z M 9.75 15.433594 "/></clipPath><clipPath id="0a08a4e8b2"><path d="M 9.75 29 L 33.609375 29 L 33.609375 32 L 9.75 32 Z M 9.75 29 "/></clipPath><clipPath id="ef9f79eb51"><path d="M 18 31 L 25 31 L 25 34.820312 L 18 34.820312 Z M 18 31 "/></clipPath><clipPath id="ce0813a717"><path d="M 18 34 L 26 34 L 26 34.820312 L 18 34.820312 Z M 18 34 "/></clipPath><clipPath id="7beb046bcc"><path d="M 0.964844 17.261719 L 7.675781 17.261719 L 7.675781 23.972656 L 0.964844 23.972656 Z M 0.964844 17.261719 "/></clipPath><clipPath id="8d1afbebca"><path d="M 4.25 7.644531 L 10.960938 7.644531 L 10.960938 14.355469 L 4.25 14.355469 Z M 4.25 7.644531 "/></clipPath><clipPath id="d6bd3a7c5b"><path d="M 13.644531 4.25 L 20.355469 4.25 L 20.355469 10.960938 L 13.644531 10.960938 Z M 13.644531 4.25 "/></clipPath><clipPath id="a794528b73"><path d="M 23.039062 4.25 L 29.003906 4.25 L 29.003906 10.960938 L 23.039062 10.960938 Z M 23.039062 4.25 "/></clipPath><clipPath id="028dc7bc60"><path d="M 4.484375 27.152344 L 8.957031 27.152344 L 8.957031 34.609375 L 4.484375 34.609375 Z M 4.484375 27.152344 "/></clipPath><clipPath id="75c63d6c9f"><path d="M 5 27.152344 L 8.957031 27.152344 L 8.957031 34 L 5 34 Z M 5 27.152344 "/></clipPath><clipPath id="87ac711494"><path d="M 5 28 L 8.957031 28 L 8.957031 33 L 5 33 Z M 5 28 "/></clipPath><clipPath id="876b8f8432"><path d="M 0.742188 33.21875 L 3.722656 33.21875 L 3.722656 34.710938 L 0.742188 34.710938 Z M 0.742188 33.21875 "/></clipPath><clipPath id="b0ad2e1a66"><path d="M 31.214844 7.371094 L 37.925781 7.371094 L 37.925781 14.082031 L 31.214844 14.082031 Z M 31.214844 7.371094 "/></clipPath><clipPath id="c0226f8832"><path d="M 34.722656 17.878906 L 41.433594 17.878906 L 41.433594 24.589844 L 34.722656 24.589844 Z M 34.722656 17.878906 "/></clipPath></defs><g id="bda191c2d5"><g clip-rule="nonzero" clip-path="url(#0d1f46e34b)"><path style=" stroke:none;fill-rule:nonzero;fill:#45d4ad;fill-opacity:1;" d="M 33.460938 15.988281 C 33.460938 15.683594 33.214844 15.4375 32.910156 15.4375 L 10.300781 15.4375 C 9.996094 15.4375 9.75 15.683594 9.75 15.988281 L 9.75 29.667969 L 33.460938 29.667969 L 33.460938 15.988281 "/></g><g clip-rule="nonzero" clip-path="url(#0a08a4e8b2)"><path style=" stroke:none;fill-rule:nonzero;fill:#45d4ad;fill-opacity:1;" d="M 9.75 29.667969 L 9.75 31.132812 C 9.75 31.4375 9.996094 31.683594 10.300781 31.683594 L 32.910156 31.683594 C 33.214844 31.683594 33.460938 31.4375 33.460938 31.132812 L 33.460938 29.667969 L 9.75 29.667969 "/></g><path style=" stroke:none;fill-rule:nonzero;fill:#a96dd0;fill-opacity:1;" d="M 32.703125 28.8125 L 10.511719 28.8125 L 10.511719 16.292969 L 32.703125 16.292969 L 32.703125 28.8125 "/><g clip-rule="nonzero" clip-path="url(#ef9f79eb51)"><path style=" stroke:none;fill-rule:nonzero;fill:#45d4ad;fill-opacity:1;" d="M 24.28125 34.523438 L 18.929688 34.523438 L 19.261719 31.683594 L 23.949219 31.683594 L 24.28125 34.523438 "/></g><g clip-rule="nonzero" clip-path="url(#ce0813a717)"><path style=" stroke:none;fill-rule:nonzero;fill:#45d4ad;fill-opacity:1;" d="M 25.007812 34.722656 L 18.203125 34.722656 L 18.929688 34.425781 L 24.28125 34.425781 L 25.007812 34.722656 "/><path style=" stroke:none;fill-rule:nonzero;fill:#45d4ad;fill-opacity:1;" d="M 25.007812 34.820312 L 18.203125 34.820312 L 18.203125 34.722656 L 25.007812 34.722656 L 25.007812 34.820312 "/></g><path style=" stroke:none;fill-rule:nonzero;fill:#45d4ad;fill-opacity:1;" d="M 22.050781 30.675781 C 22.050781 30.914062 21.859375 31.105469 21.621094 31.105469 C 21.386719 31.105469 21.195312 30.914062 21.195312 30.675781 C 21.195312 30.441406 21.386719 30.246094 21.621094 30.246094 C 21.859375 30.246094 22.050781 30.441406 22.050781 30.675781 "/><g clip-rule="nonzero" clip-path="url(#7beb046bcc)"><path style=" stroke:none;fill-rule:nonzero;fill:#dd72a6;fill-opacity:1;" d="M 6.976562 20.644531 C 6.976562 20.613281 7.003906 20.574219 7.03125 20.5625 L 7.613281 20.269531 C 7.644531 20.253906 7.664062 20.214844 7.65625 20.183594 L 7.523438 19.566406 C 7.515625 19.535156 7.480469 19.507812 7.449219 19.503906 L 6.785156 19.460938 C 6.753906 19.460938 6.714844 19.433594 6.699219 19.40625 L 6.609375 19.242188 C 6.59375 19.210938 6.59375 19.167969 6.609375 19.140625 L 6.945312 18.574219 C 6.960938 18.546875 6.957031 18.503906 6.9375 18.480469 L 6.484375 18.019531 C 6.460938 18 6.421875 17.996094 6.390625 18.007812 L 5.816406 18.328125 C 5.785156 18.34375 5.742188 18.34375 5.714844 18.328125 L 5.558594 18.238281 C 5.53125 18.222656 5.503906 18.1875 5.503906 18.152344 L 5.480469 17.492188 C 5.480469 17.460938 5.453125 17.425781 5.421875 17.417969 L 4.796875 17.265625 C 4.765625 17.261719 4.726562 17.28125 4.710938 17.308594 L 4.402344 17.886719 C 4.386719 17.914062 4.359375 17.9375 4.34375 17.9375 L 4.332031 17.9375 C 4.238281 17.9375 4.121094 17.945312 4.121094 17.945312 C 4.089844 17.949219 4.046875 17.929688 4.03125 17.902344 L 3.652344 17.355469 C 3.632812 17.328125 3.59375 17.316406 3.5625 17.324219 L 2.964844 17.523438 C 2.933594 17.539062 2.910156 17.574219 2.914062 17.605469 L 2.964844 18.253906 C 2.96875 18.285156 2.949219 18.328125 2.921875 18.34375 L 2.730469 18.476562 C 2.707031 18.496094 2.660156 18.5 2.628906 18.488281 L 2.015625 18.234375 C 1.984375 18.222656 1.945312 18.230469 1.921875 18.253906 L 1.539062 18.730469 C 1.519531 18.757812 1.519531 18.796875 1.539062 18.824219 L 1.933594 19.339844 C 1.953125 19.367188 1.957031 19.410156 1.941406 19.4375 L 1.835938 19.695312 C 1.824219 19.726562 1.789062 19.753906 1.757812 19.757812 L 1.105469 19.878906 C 1.074219 19.882812 1.046875 19.914062 1.039062 19.945312 C 1.039062 19.945312 0.976562 20.347656 0.976562 20.585938 C 0.976562 20.589844 1 20.597656 1.03125 20.609375 L 1.640625 20.832031 C 1.667969 20.84375 1.699219 20.878906 1.703125 20.910156 L 1.757812 21.222656 C 1.765625 21.253906 1.753906 21.296875 1.730469 21.316406 L 1.246094 21.765625 C 1.222656 21.789062 1.214844 21.832031 1.230469 21.859375 L 1.492188 22.371094 C 1.507812 22.398438 1.546875 22.414062 1.578125 22.40625 L 2.214844 22.265625 C 2.246094 22.257812 2.289062 22.269531 2.308594 22.296875 L 2.542969 22.539062 C 2.566406 22.5625 2.578125 22.605469 2.570312 22.636719 L 2.410156 23.269531 C 2.402344 23.300781 2.417969 23.339844 2.445312 23.355469 L 2.941406 23.636719 C 2.96875 23.648438 3.011719 23.644531 3.03125 23.621094 L 3.492188 23.15625 C 3.515625 23.132812 3.558594 23.121094 3.589844 23.128906 L 3.917969 23.199219 C 3.949219 23.207031 3.984375 23.234375 3.992188 23.265625 L 4.199219 23.882812 C 4.207031 23.914062 4.242188 23.9375 4.273438 23.9375 C 4.273438 23.9375 4.292969 23.941406 4.328125 23.941406 C 4.527344 23.941406 4.851562 23.898438 4.851562 23.898438 C 4.882812 23.894531 4.914062 23.863281 4.921875 23.832031 L 5.054688 23.1875 C 5.0625 23.15625 5.09375 23.121094 5.125 23.113281 L 5.410156 23.003906 C 5.441406 22.992188 5.484375 22.996094 5.511719 23.015625 L 6.015625 23.421875 C 6.039062 23.441406 6.082031 23.445312 6.109375 23.425781 L 6.582031 23.066406 C 6.605469 23.046875 6.617188 23.003906 6.605469 22.976562 L 6.371094 22.355469 C 6.359375 22.324219 6.363281 22.28125 6.386719 22.253906 L 6.542969 22.042969 C 6.558594 22.015625 6.601562 21.996094 6.632812 22 L 7.277344 22.070312 C 7.308594 22.074219 7.347656 22.050781 7.359375 22.023438 L 7.570312 21.445312 C 7.578125 21.414062 7.566406 21.371094 7.539062 21.351562 L 7.003906 20.957031 C 6.980469 20.9375 6.960938 20.898438 6.964844 20.863281 Z M 4.320312 22.554688 C 3.242188 22.554688 2.367188 21.679688 2.367188 20.597656 C 2.367188 19.519531 3.242188 18.644531 4.320312 18.644531 C 5.402344 18.644531 6.277344 19.519531 6.277344 20.597656 C 6.277344 21.679688 5.402344 22.554688 4.320312 22.554688 Z M 4.320312 22.554688 "/></g><g clip-rule="nonzero" clip-path="url(#8d1afbebca)"><path style=" stroke:none;fill-rule:nonzero;fill:#22c177;fill-opacity:1;" d="M 9.421875 12.816406 C 9.367188 12.875 9.289062 12.902344 9.214844 12.902344 C 9.136719 12.902344 9.0625 12.875 9.003906 12.816406 L 8.25 12.0625 C 7.980469 12.246094 7.664062 12.339844 7.347656 12.339844 C 6.941406 12.339844 6.53125 12.183594 6.21875 11.871094 C 5.59375 11.25 5.59375 10.234375 6.21875 9.613281 C 6.84375 8.988281 7.855469 8.988281 8.480469 9.613281 C 9.03125 10.164062 9.09375 11.019531 8.667969 11.640625 L 9.421875 12.398438 C 9.539062 12.511719 9.539062 12.699219 9.421875 12.816406 Z M 7.605469 7.644531 C 5.753906 7.644531 4.25 9.144531 4.25 11 C 4.25 12.851562 5.753906 14.355469 7.605469 14.355469 C 9.457031 14.355469 10.960938 12.851562 10.960938 11 C 10.960938 9.144531 9.457031 7.644531 7.605469 7.644531 "/></g><path style=" stroke:none;fill-rule:nonzero;fill:#22c177;fill-opacity:1;" d="M 7.347656 9.636719 C 7.066406 9.636719 6.78125 9.746094 6.566406 9.960938 C 6.136719 10.390625 6.136719 11.09375 6.566406 11.523438 C 7 11.953125 7.699219 11.953125 8.132812 11.523438 C 8.5625 11.09375 8.5625 10.390625 8.132812 9.960938 C 7.914062 9.746094 7.632812 9.636719 7.347656 9.636719 "/><g clip-rule="nonzero" clip-path="url(#d6bd3a7c5b)"><path style=" stroke:none;fill-rule:evenodd;fill:#dd72a6;fill-opacity:1;" d="M 20.054688 7.453125 C 20.054688 5.683594 18.617188 4.25 16.847656 4.25 C 15.078125 4.25 13.644531 5.683594 13.644531 7.453125 C 13.644531 9.222656 15.078125 10.65625 16.847656 10.65625 C 18.617188 10.65625 20.054688 9.222656 20.054688 7.453125 Z M 16.523438 10.007812 C 16.554688 10.027344 16.59375 10.003906 16.59375 9.96875 L 16.59375 8.867188 C 16.59375 8.839844 16.574219 8.820312 16.546875 8.816406 C 16.3125 8.808594 16.085938 8.789062 15.867188 8.757812 C 15.832031 8.753906 15.800781 8.789062 15.8125 8.824219 C 15.882812 9.0625 15.972656 9.277344 16.074219 9.460938 C 16.222656 9.738281 16.378906 9.90625 16.523438 10.007812 Z M 17.179688 8.816406 C 17.152344 8.816406 17.128906 8.839844 17.128906 8.867188 L 17.128906 9.949219 C 17.128906 9.988281 17.171875 10.011719 17.203125 9.988281 C 17.339844 9.886719 17.484375 9.71875 17.625 9.460938 C 17.726562 9.277344 17.816406 9.0625 17.886719 8.824219 C 17.898438 8.789062 17.867188 8.753906 17.832031 8.757812 C 17.621094 8.789062 17.402344 8.808594 17.179688 8.816406 Z M 17.179688 8.28125 C 17.152344 8.285156 17.128906 8.261719 17.128906 8.230469 L 17.128906 7.179688 C 17.128906 7.152344 17.152344 7.132812 17.175781 7.128906 C 17.464844 7.117188 17.742188 7.082031 18 7.03125 C 18.03125 7.027344 18.058594 7.046875 18.0625 7.078125 C 18.070312 7.199219 18.074219 7.324219 18.074219 7.453125 C 18.074219 7.699219 18.058594 7.929688 18.027344 8.152344 C 18.023438 8.175781 18.007812 8.191406 17.988281 8.195312 C 17.734375 8.238281 17.464844 8.269531 17.179688 8.28125 Z M 16.542969 6.597656 C 16.570312 6.597656 16.59375 6.574219 16.59375 6.546875 L 16.59375 4.941406 C 16.59375 4.902344 16.554688 4.878906 16.523438 4.902344 C 16.378906 5 16.222656 5.171875 16.074219 5.445312 C 15.925781 5.714844 15.800781 6.054688 15.722656 6.441406 C 15.71875 6.46875 15.734375 6.496094 15.761719 6.5 C 16.003906 6.550781 16.265625 6.582031 16.542969 6.597656 Z M 17.128906 6.546875 C 17.128906 6.574219 17.152344 6.597656 17.183594 6.59375 C 17.449219 6.582031 17.703125 6.546875 17.9375 6.5 C 17.964844 6.496094 17.980469 6.46875 17.976562 6.441406 C 17.894531 6.054688 17.773438 5.714844 17.625 5.445312 C 17.484375 5.1875 17.339844 5.023438 17.203125 4.921875 C 17.171875 4.898438 17.128906 4.921875 17.128906 4.960938 Z M 16.542969 8.285156 C 16.570312 8.285156 16.59375 8.261719 16.59375 8.234375 L 16.59375 7.183594 C 16.59375 7.15625 16.574219 7.132812 16.546875 7.132812 C 16.25 7.117188 15.964844 7.082031 15.695312 7.03125 C 15.667969 7.027344 15.640625 7.046875 15.636719 7.078125 C 15.628906 7.199219 15.625 7.324219 15.625 7.453125 C 15.625 7.699219 15.640625 7.929688 15.671875 8.152344 C 15.671875 8.175781 15.6875 8.191406 15.710938 8.195312 C 15.972656 8.242188 16.25 8.269531 16.542969 8.285156 Z M 18.167969 9.777344 C 18.121094 9.800781 18.074219 9.753906 18.101562 9.707031 C 18.261719 9.414062 18.390625 9.058594 18.476562 8.667969 C 18.480469 8.648438 18.496094 8.636719 18.515625 8.628906 C 18.78125 8.5625 19.03125 8.480469 19.261719 8.386719 C 19.300781 8.367188 19.34375 8.40625 19.328125 8.449219 C 19.101562 9.011719 18.6875 9.480469 18.167969 9.777344 Z M 18.585938 7.988281 C 18.582031 8.023438 18.613281 8.050781 18.648438 8.039062 C 18.976562 7.9375 19.261719 7.8125 19.492188 7.667969 C 19.503906 7.660156 19.511719 7.648438 19.511719 7.632812 C 19.515625 7.574219 19.519531 7.515625 19.519531 7.453125 C 19.519531 7.148438 19.46875 6.855469 19.375 6.582031 C 19.363281 6.554688 19.328125 6.542969 19.300781 6.558594 C 19.101562 6.679688 18.875 6.785156 18.617188 6.871094 C 18.597656 6.878906 18.582031 6.898438 18.585938 6.921875 C 18.601562 7.097656 18.609375 7.273438 18.609375 7.453125 C 18.609375 7.636719 18.601562 7.8125 18.585938 7.988281 Z M 14.183594 7.632812 C 14.1875 7.648438 14.195312 7.660156 14.207031 7.667969 C 14.433594 7.8125 14.71875 7.9375 15.050781 8.039062 C 15.082031 8.050781 15.117188 8.023438 15.113281 7.988281 C 15.097656 7.8125 15.089844 7.636719 15.089844 7.453125 C 15.089844 7.273438 15.097656 7.097656 15.113281 6.921875 C 15.117188 6.898438 15.101562 6.878906 15.078125 6.871094 C 14.824219 6.785156 14.59375 6.679688 14.398438 6.558594 C 14.371094 6.542969 14.335938 6.554688 14.324219 6.582031 C 14.230469 6.855469 14.179688 7.148438 14.179688 7.453125 C 14.179688 7.515625 14.179688 7.574219 14.183594 7.632812 Z M 15.21875 8.667969 C 15.214844 8.648438 15.203125 8.636719 15.183594 8.628906 C 14.914062 8.5625 14.664062 8.480469 14.4375 8.386719 C 14.394531 8.367188 14.355469 8.40625 14.371094 8.449219 C 14.597656 9.011719 15.007812 9.480469 15.53125 9.777344 C 15.574219 9.800781 15.621094 9.753906 15.597656 9.707031 C 15.4375 9.414062 15.308594 9.058594 15.21875 8.667969 Z M 19.089844 6 C 19.105469 6.023438 19.097656 6.054688 19.074219 6.066406 C 18.933594 6.164062 18.757812 6.25 18.554688 6.328125 C 18.527344 6.335938 18.496094 6.320312 18.488281 6.289062 C 18.402344 5.878906 18.265625 5.507812 18.101562 5.199219 C 18.074219 5.15625 18.121094 5.105469 18.167969 5.132812 C 18.539062 5.34375 18.855469 5.640625 19.089844 6 Z M 15.144531 6.328125 C 15.171875 6.335938 15.203125 6.320312 15.210938 6.289062 C 15.296875 5.878906 15.429688 5.507812 15.597656 5.199219 C 15.621094 5.15625 15.574219 5.105469 15.53125 5.132812 C 15.160156 5.34375 14.84375 5.640625 14.609375 6 C 14.59375 6.023438 14.601562 6.054688 14.621094 6.066406 C 14.765625 6.164062 14.941406 6.25 15.144531 6.328125 Z M 15.144531 6.328125 "/></g><g clip-rule="nonzero" clip-path="url(#a794528b73)"><path style=" stroke:none;fill-rule:nonzero;fill:#a16ae8;fill-opacity:1;" d="M 26.019531 5.339844 C 25.484375 5.347656 24.984375 5.558594 24.605469 5.941406 C 24.230469 6.320312 24.023438 6.828125 24.023438 7.363281 C 24.023438 7.96875 24.292969 8.539062 24.761719 8.925781 C 24.90625 9.046875 24.992188 9.226562 24.992188 9.421875 L 24.992188 9.925781 C 24.992188 10.3125 25.308594 10.628906 25.695312 10.628906 L 26.394531 10.628906 C 26.785156 10.628906 27.097656 10.3125 27.097656 9.925781 L 27.097656 9.421875 C 27.097656 9.226562 27.183594 9.046875 27.335938 8.921875 C 27.8125 8.527344 28.078125 7.949219 28.070312 7.332031 C 28.050781 6.21875 27.132812 5.324219 26.019531 5.339844 Z M 26.394531 10.351562 L 25.695312 10.351562 C 25.484375 10.351562 25.308594 10.195312 25.277344 9.992188 L 26.8125 9.992188 C 26.78125 10.195312 26.605469 10.351562 26.394531 10.351562 Z M 26.820312 9.714844 L 25.273438 9.714844 L 25.273438 9.5625 L 26.820312 9.5625 Z M 27.15625 8.707031 C 26.980469 8.855469 26.863281 9.058594 26.832031 9.28125 L 25.261719 9.28125 C 25.226562 9.058594 25.113281 8.855469 24.9375 8.710938 C 24.535156 8.378906 24.300781 7.886719 24.300781 7.363281 C 24.300781 6.414062 25.074219 5.628906 26.023438 5.617188 C 26.03125 5.617188 26.039062 5.617188 26.046875 5.617188 C 26.996094 5.617188 27.777344 6.382812 27.789062 7.335938 C 27.796875 7.867188 27.566406 8.367188 27.15625 8.707031 Z M 25.90625 4.914062 L 25.90625 4.394531 C 25.90625 4.316406 25.96875 4.253906 26.046875 4.253906 C 26.121094 4.253906 26.183594 4.316406 26.183594 4.394531 L 26.183594 4.914062 C 26.183594 4.992188 26.121094 5.054688 26.046875 5.054688 C 25.96875 5.054688 25.90625 4.992188 25.90625 4.914062 Z M 27.082031 5.167969 L 27.34375 4.714844 C 27.382812 4.648438 27.46875 4.625 27.535156 4.664062 C 27.601562 4.703125 27.625 4.789062 27.585938 4.855469 L 27.324219 5.304688 C 27.296875 5.351562 27.25 5.375 27.203125 5.375 C 27.179688 5.375 27.15625 5.371094 27.132812 5.355469 C 27.066406 5.320312 27.042969 5.234375 27.082031 5.167969 Z M 28.566406 5.957031 L 28.113281 6.214844 C 28.09375 6.226562 28.070312 6.234375 28.046875 6.234375 C 27.996094 6.234375 27.949219 6.210938 27.925781 6.164062 C 27.886719 6.097656 27.910156 6.011719 27.976562 5.972656 L 28.425781 5.714844 C 28.492188 5.675781 28.578125 5.699219 28.617188 5.765625 C 28.65625 5.832031 28.632812 5.917969 28.566406 5.957031 Z M 29.003906 7.257812 C 29.003906 7.335938 28.941406 7.398438 28.867188 7.398438 L 28.34375 7.398438 C 28.269531 7.398438 28.207031 7.335938 28.207031 7.257812 C 28.207031 7.183594 28.269531 7.121094 28.34375 7.121094 L 28.867188 7.121094 C 28.941406 7.121094 29.003906 7.183594 29.003906 7.257812 Z M 24.5 4.832031 C 24.460938 4.765625 24.484375 4.679688 24.550781 4.640625 C 24.617188 4.601562 24.703125 4.625 24.742188 4.691406 L 25.003906 5.144531 C 25.042969 5.210938 25.019531 5.296875 24.953125 5.335938 C 24.929688 5.347656 24.90625 5.351562 24.882812 5.351562 C 24.832031 5.351562 24.785156 5.328125 24.761719 5.285156 Z M 24.023438 6.195312 C 24 6.195312 23.976562 6.1875 23.953125 6.175781 L 23.503906 5.914062 C 23.4375 5.875 23.414062 5.792969 23.453125 5.726562 C 23.488281 5.65625 23.574219 5.636719 23.640625 5.671875 L 24.09375 5.933594 C 24.160156 5.972656 24.183594 6.058594 24.144531 6.125 C 24.117188 6.167969 24.070312 6.195312 24.023438 6.195312 Z M 23.839844 7.214844 C 23.839844 7.289062 23.777344 7.351562 23.699219 7.351562 L 23.179688 7.351562 C 23.101562 7.351562 23.039062 7.289062 23.039062 7.214844 C 23.039062 7.136719 23.101562 7.074219 23.179688 7.074219 L 23.699219 7.074219 C 23.777344 7.074219 23.839844 7.136719 23.839844 7.214844 Z M 23.839844 7.214844 "/></g><g clip-rule="nonzero" clip-path="url(#028dc7bc60)"><path style=" stroke:none;fill-rule:nonzero;fill:#a96dd0;fill-opacity:1;" d="M 8.75 33.5625 C 8.75 34.085938 8.269531 34.515625 7.675781 34.515625 C 7.675781 34.515625 5.582031 34.515625 5.578125 34.515625 C 4.9375 34.515625 4.503906 33.929688 4.492188 33.324219 C 4.484375 32.933594 4.5 32.539062 4.5 32.148438 C 4.5 31.605469 4.503906 31.058594 4.503906 30.515625 C 4.5 30.015625 4.503906 29.515625 4.503906 29.019531 C 4.503906 28.769531 4.503906 28.523438 4.503906 28.273438 C 4.503906 28.265625 4.503906 28.257812 4.503906 28.25 C 4.503906 27.894531 4.738281 27.566406 5.054688 27.425781 C 5.632812 27.160156 6.378906 27.300781 6.996094 27.296875 C 7.371094 27.292969 7.78125 27.265625 8.136719 27.40625 C 8.664062 27.621094 8.777344 28.210938 8.753906 28.714844 C 8.710938 29.738281 8.726562 30.765625 8.734375 31.789062 C 8.738281 32.089844 8.742188 32.394531 8.746094 32.695312 C 8.75 32.984375 8.75 33.273438 8.75 33.5625 Z M 8.75 33.5625 "/><path style=" stroke:none;fill-rule:nonzero;fill:#603f8b;fill-opacity:1;" d="M 8.933594 33.5625 C 8.933594 34.085938 8.453125 34.515625 7.859375 34.515625 C 7.859375 34.515625 5.765625 34.515625 5.761719 34.515625 C 5.117188 34.515625 4.683594 33.929688 4.675781 33.324219 C 4.667969 32.933594 4.683594 32.539062 4.683594 32.148438 C 4.683594 31.605469 4.6875 31.058594 4.683594 30.515625 C 4.683594 30.015625 4.6875 29.515625 4.6875 29.019531 C 4.6875 28.769531 4.6875 28.523438 4.6875 28.273438 C 4.6875 28.265625 4.6875 28.257812 4.6875 28.25 C 4.6875 27.894531 4.921875 27.566406 5.238281 27.425781 C 5.816406 27.160156 6.5625 27.300781 7.179688 27.296875 C 7.550781 27.292969 7.964844 27.265625 8.320312 27.40625 C 8.847656 27.621094 8.957031 28.210938 8.9375 28.714844 C 8.894531 29.738281 8.90625 30.765625 8.917969 31.789062 C 8.921875 32.089844 8.925781 32.394531 8.929688 32.695312 C 8.933594 32.984375 8.933594 33.273438 8.933594 33.5625 Z M 8.933594 33.5625 "/></g><g clip-rule="nonzero" clip-path="url(#75c63d6c9f)"><path style=" stroke:none;fill-rule:nonzero;fill:#ffffff;fill-opacity:1;" d="M 8.585938 33.117188 C 8.578125 33.191406 8.566406 33.261719 8.546875 33.332031 C 8.351562 34.042969 7.277344 33.929688 6.722656 33.929688 C 6.257812 33.925781 5.542969 33.988281 5.234375 33.554688 C 5.023438 33.261719 5.058594 32.90625 5.0625 32.566406 C 5.070312 32.207031 5.0625 31.84375 5.066406 31.484375 C 5.070312 30.542969 5.035156 29.601562 5.066406 28.660156 C 5.078125 28.265625 5.261719 27.832031 5.667969 27.714844 C 6.042969 27.609375 6.4375 27.664062 6.816406 27.671875 C 7.242188 27.679688 7.683594 27.617188 8.09375 27.765625 C 8.453125 27.894531 8.582031 28.214844 8.613281 28.566406 C 8.652344 29.046875 8.636719 29.539062 8.621094 30.019531 C 8.597656 30.632812 8.59375 31.242188 8.597656 31.851562 C 8.597656 32.144531 8.601562 32.433594 8.59375 32.722656 C 8.59375 32.851562 8.597656 32.984375 8.585938 33.117188 Z M 8.585938 33.117188 "/></g><g clip-rule="nonzero" clip-path="url(#87ac711494)"><path style=" stroke:none;fill-rule:nonzero;fill:#603f8b;fill-opacity:1;" d="M 5.433594 28.957031 C 5.371094 29.003906 5.335938 29.082031 5.335938 29.199219 C 5.332031 29.417969 5.382812 29.628906 5.382812 29.84375 C 5.386719 30.140625 5.382812 30.4375 5.382812 30.734375 C 5.382812 31.28125 5.382812 31.824219 5.382812 32.371094 C 5.382812 32.558594 5.375 32.742188 5.585938 32.804688 C 5.859375 32.886719 6.175781 32.792969 6.453125 32.792969 C 6.808594 32.792969 7.167969 32.792969 7.527344 32.792969 C 7.613281 32.792969 7.707031 32.808594 7.792969 32.8125 C 7.910156 32.816406 8.050781 32.875 8.164062 32.828125 C 8.3125 32.769531 8.289062 32.582031 8.289062 32.449219 C 8.292969 32.210938 8.277344 31.96875 8.277344 31.730469 C 8.277344 31.121094 8.277344 30.515625 8.277344 29.910156 C 8.277344 29.632812 8.308594 29.355469 8.289062 29.082031 C 8.273438 28.859375 8.128906 28.871094 7.925781 28.867188 C 7.660156 28.863281 7.394531 28.882812 7.125 28.886719 C 6.769531 28.890625 6.410156 28.890625 6.054688 28.894531 C 5.953125 28.894531 5.851562 28.898438 5.75 28.894531 C 5.621094 28.886719 5.507812 28.902344 5.433594 28.957031 Z M 5.433594 28.957031 "/></g><path style=" stroke:none;fill-rule:nonzero;fill:#603f8b;fill-opacity:1;" d="M 7.683594 33.445312 C 7.703125 33.679688 7.390625 33.6875 7.230469 33.683594 C 6.949219 33.679688 6.671875 33.664062 6.390625 33.664062 C 6.324219 33.664062 6.261719 33.660156 6.195312 33.660156 C 6.078125 33.660156 5.980469 33.566406 5.980469 33.445312 C 5.980469 33.121094 6.445312 33.226562 6.640625 33.226562 C 6.855469 33.230469 7.070312 33.226562 7.289062 33.226562 C 7.425781 33.230469 7.625 33.21875 7.671875 33.382812 C 7.679688 33.40625 7.683594 33.425781 7.683594 33.445312 Z M 7.683594 33.445312 "/><path style=" stroke:none;fill-rule:nonzero;fill:#ffffff;fill-opacity:1;" d="M 7.578125 33.445312 C 7.59375 33.617188 7.40625 33.648438 7.277344 33.65625 C 7.058594 33.667969 6.832031 33.648438 6.609375 33.640625 C 6.476562 33.636719 6.238281 33.679688 6.136719 33.578125 C 6.074219 33.515625 6.0625 33.40625 6.113281 33.335938 C 6.167969 33.261719 6.273438 33.246094 6.355469 33.238281 C 6.511719 33.230469 6.667969 33.25 6.824219 33.253906 C 6.972656 33.253906 7.121094 33.25 7.269531 33.25 C 7.398438 33.253906 7.558594 33.289062 7.578125 33.441406 C 7.578125 33.441406 7.578125 33.445312 7.578125 33.445312 Z M 7.578125 33.445312 "/><path style=" stroke:none;fill-rule:nonzero;fill:#603f8b;fill-opacity:1;" d="M 7.046875 28.28125 C 7.046875 28.398438 6.953125 28.492188 6.835938 28.492188 C 6.71875 28.492188 6.625 28.398438 6.625 28.28125 C 6.625 28.164062 6.71875 28.066406 6.835938 28.066406 C 6.953125 28.066406 7.046875 28.164062 7.046875 28.28125 Z M 7.046875 28.28125 "/><g clip-rule="nonzero" clip-path="url(#876b8f8432)"><path style=" stroke:none;fill-rule:nonzero;fill:#a16ae8;fill-opacity:1;" d="M 2.859375 33.539062 C 2.882812 33.523438 2.910156 33.519531 2.933594 33.519531 C 2.964844 33.519531 2.988281 33.523438 3.007812 33.539062 C 3.027344 33.550781 3.042969 33.570312 3.050781 33.601562 C 3.054688 33.625 3.058594 33.644531 3.058594 33.660156 C 3.058594 33.726562 3.027344 33.785156 2.972656 33.839844 C 2.917969 33.894531 2.84375 33.941406 2.773438 33.972656 C 2.757812 33.980469 2.742188 33.988281 2.726562 33.996094 C 2.796875 33.832031 2.835938 33.667969 2.859375 33.539062 Z M 3.015625 34.382812 L 2.480469 34.382812 C 2.511719 34.347656 2.542969 34.3125 2.570312 34.273438 C 2.652344 34.199219 2.730469 34.140625 2.828125 34.097656 C 2.910156 34.058594 2.996094 34.007812 3.066406 33.9375 C 3.136719 33.867188 3.195312 33.773438 3.195312 33.660156 C 3.195312 33.628906 3.191406 33.597656 3.183594 33.566406 C 3.164062 33.507812 3.128906 33.457031 3.085938 33.425781 C 3.039062 33.394531 2.988281 33.382812 2.933594 33.382812 C 2.914062 33.382812 2.894531 33.382812 2.875 33.386719 C 2.882812 33.3125 2.882812 33.269531 2.882812 33.269531 C 2.882812 33.246094 2.867188 33.226562 2.84375 33.226562 L 1.023438 33.226562 C 1 33.226562 0.980469 33.246094 0.980469 33.269531 C 0.980469 33.269531 0.980469 33.949219 1.382812 34.382812 L 0.847656 34.382812 C 0.757812 34.382812 0.742188 34.429688 0.816406 34.480469 C 0.96875 34.574219 1.355469 34.699219 1.753906 34.699219 L 2.109375 34.699219 C 2.507812 34.699219 2.898438 34.574219 3.046875 34.480469 C 3.125 34.429688 3.105469 34.382812 3.015625 34.382812 "/></g><g clip-rule="nonzero" clip-path="url(#b0ad2e1a66)"><path style=" stroke:none;fill-rule:nonzero;fill:#603f8b;fill-opacity:1;" d="M 37.226562 10.753906 C 37.226562 10.722656 37.25 10.683594 37.28125 10.671875 L 37.863281 10.378906 C 37.890625 10.363281 37.910156 10.328125 37.90625 10.296875 L 37.773438 9.675781 C 37.761719 9.644531 37.730469 9.617188 37.699219 9.617188 L 37.035156 9.574219 C 37.003906 9.570312 36.964844 9.546875 36.949219 9.515625 L 36.859375 9.351562 C 36.84375 9.324219 36.84375 9.277344 36.859375 9.25 L 37.195312 8.6875 C 37.210938 8.65625 37.207031 8.617188 37.1875 8.589844 L 36.734375 8.132812 C 36.710938 8.109375 36.667969 8.105469 36.640625 8.121094 L 36.0625 8.441406 C 36.035156 8.457031 35.992188 8.457031 35.964844 8.4375 L 35.808594 8.351562 C 35.777344 8.335938 35.753906 8.296875 35.753906 8.265625 L 35.730469 7.601562 C 35.730469 7.570312 35.703125 7.535156 35.671875 7.527344 L 35.046875 7.378906 C 35.015625 7.371094 34.976562 7.390625 34.960938 7.417969 L 34.652344 7.996094 C 34.636719 8.023438 34.609375 8.046875 34.59375 8.046875 L 34.578125 8.046875 C 34.488281 8.046875 34.371094 8.054688 34.371094 8.054688 C 34.339844 8.058594 34.296875 8.039062 34.277344 8.011719 L 33.898438 7.464844 C 33.882812 7.441406 33.839844 7.425781 33.808594 7.433594 L 33.214844 7.636719 C 33.183594 7.648438 33.160156 7.683594 33.164062 7.714844 L 33.214844 8.363281 C 33.21875 8.398438 33.195312 8.4375 33.171875 8.453125 L 32.980469 8.585938 C 32.953125 8.605469 32.910156 8.609375 32.878906 8.597656 L 32.265625 8.34375 C 32.234375 8.332031 32.191406 8.339844 32.171875 8.367188 L 31.789062 8.839844 C 31.769531 8.867188 31.769531 8.910156 31.789062 8.933594 L 32.183594 9.449219 C 32.199219 9.476562 32.207031 9.519531 32.191406 9.550781 L 32.085938 9.804688 C 32.074219 9.835938 32.039062 9.863281 32.007812 9.871094 L 31.355469 9.988281 C 31.324219 9.992188 31.292969 10.023438 31.289062 10.054688 C 31.289062 10.054688 31.226562 10.457031 31.226562 10.695312 L 31.226562 10.699219 C 31.226562 10.699219 31.25 10.710938 31.28125 10.71875 L 31.890625 10.941406 C 31.917969 10.953125 31.949219 10.988281 31.953125 11.019531 L 32.007812 11.332031 C 32.015625 11.363281 32.003906 11.40625 31.980469 11.429688 L 31.496094 11.878906 C 31.472656 11.898438 31.464844 11.941406 31.476562 11.96875 L 31.742188 12.480469 C 31.757812 12.507812 31.796875 12.523438 31.828125 12.515625 L 32.460938 12.375 C 32.492188 12.367188 32.535156 12.382812 32.558594 12.40625 L 32.792969 12.648438 C 32.816406 12.671875 32.828125 12.714844 32.820312 12.746094 L 32.660156 13.378906 C 32.652344 13.410156 32.667969 13.449219 32.691406 13.46875 L 33.1875 13.746094 C 33.21875 13.761719 33.257812 13.753906 33.28125 13.730469 L 33.742188 13.265625 C 33.765625 13.242188 33.808594 13.230469 33.839844 13.238281 L 34.167969 13.3125 C 34.199219 13.316406 34.230469 13.347656 34.242188 13.375 L 34.445312 13.992188 C 34.457031 14.023438 34.492188 14.050781 34.523438 14.050781 C 34.523438 14.050781 34.542969 14.050781 34.578125 14.050781 C 34.777344 14.050781 35.097656 14.007812 35.097656 14.007812 C 35.132812 14.003906 35.164062 13.976562 35.167969 13.945312 L 35.304688 13.296875 C 35.3125 13.265625 35.34375 13.234375 35.371094 13.222656 L 35.660156 13.113281 C 35.691406 13.101562 35.734375 13.105469 35.757812 13.128906 L 36.265625 13.535156 C 36.289062 13.554688 36.332031 13.554688 36.359375 13.539062 L 36.832031 13.179688 C 36.855469 13.15625 36.867188 13.117188 36.855469 13.085938 L 36.617188 12.464844 C 36.605469 12.4375 36.613281 12.390625 36.632812 12.367188 L 36.789062 12.152344 C 36.808594 12.125 36.847656 12.105469 36.882812 12.109375 L 37.527344 12.179688 C 37.558594 12.183594 37.59375 12.160156 37.609375 12.132812 L 37.820312 11.554688 C 37.828125 11.523438 37.816406 11.484375 37.789062 11.464844 L 37.253906 11.066406 C 37.226562 11.050781 37.210938 11.007812 37.210938 10.976562 Z M 34.570312 12.664062 C 33.492188 12.664062 32.617188 11.789062 32.617188 10.707031 C 32.617188 9.628906 33.492188 8.753906 34.570312 8.753906 C 35.648438 8.753906 36.523438 9.628906 36.523438 10.707031 C 36.523438 11.789062 35.648438 12.664062 34.570312 12.664062 Z M 34.570312 12.664062 "/></g><g clip-rule="nonzero" clip-path="url(#c0226f8832)"><path style=" stroke:none;fill-rule:nonzero;fill:#a16ae8;fill-opacity:1;" d="M 39.898438 23.054688 C 39.839844 23.113281 39.765625 23.140625 39.6875 23.140625 C 39.613281 23.140625 39.535156 23.113281 39.480469 23.054688 L 38.722656 22.300781 C 38.453125 22.484375 38.136719 22.578125 37.824219 22.578125 C 37.414062 22.578125 37.003906 22.421875 36.691406 22.109375 C 36.070312 21.484375 36.070312 20.472656 36.691406 19.847656 C 37.316406 19.226562 38.332031 19.226562 38.953125 19.847656 C 39.503906 20.398438 39.566406 21.257812 39.144531 21.878906 L 39.898438 22.632812 C 40.011719 22.75 40.011719 22.9375 39.898438 23.054688 Z M 38.078125 17.878906 C 36.226562 17.878906 34.722656 19.382812 34.722656 21.234375 C 34.722656 23.089844 36.226562 24.589844 38.078125 24.589844 C 39.933594 24.589844 41.433594 23.089844 41.433594 21.234375 C 41.433594 19.382812 39.933594 17.878906 38.078125 17.878906 "/></g><path style=" stroke:none;fill-rule:nonzero;fill:#a16ae8;fill-opacity:1;" d="M 37.824219 19.875 C 37.539062 19.875 37.257812 19.980469 37.042969 20.195312 C 36.609375 20.628906 36.609375 21.328125 37.042969 21.761719 C 37.472656 22.191406 38.175781 22.191406 38.605469 21.761719 C 39.035156 21.328125 39.035156 20.628906 38.605469 20.195312 C 38.390625 19.980469 38.105469 19.875 37.824219 19.875 "/></g></svg>